M48
;DRILL file {pcbnew (2014-06-10 BZR 4935)-product} date 26/06/2014 08:05:19
;FORMAT={-:-/ absolute / inch / decimal}
FMAT,2
INCH,TZ
T1C0.012
T2C0.020
T3C0.039
T4C0.050
T5C0.059
%
G90
G05
M72
T1
X1.603Y-2.1219
X1.6316Y-1.5193
X1.6868Y-1.9962
X1.7613Y-1.8602
X1.77Y-1.515
X1.7754Y-1.7133
X1.7803Y-1.9516
X1.8058Y-1.7341
X1.8304Y-1.511
X1.8707Y-1.7242
X1.9288Y-1.7113
X1.9789Y-1.8879
X1.9938Y-1.5469
X2.0758Y-1.7478
X2.1821Y-1.9669
X2.2488Y-1.924
X2.4363Y-1.4061
X2.8315Y-3.2043
X2.8376Y-1.1597
X2.8516Y-1.0532
X2.9053Y-1.1476
X2.9465Y-1.5132
X2.9858Y-1.8386
X2.9903Y-1.5106
X2.9925Y-1.8963
X3.0486Y-1.9341
X3.0508Y-1.2908
X3.0996Y-1.6736
X3.6106Y-1.664
X3.6372Y-3.424
X3.7664Y-1.5071
X3.7827Y-2.5178
X3.7986Y-1.5307
X3.836Y-1.5143
X3.8404Y-1.4722
X3.9511Y-1.4052
X3.997Y-2.506
X4.01Y-2.566
X4.033Y-2.531
X4.1702Y-1.0861
X4.2119Y-1.531
X4.2964Y-1.0954
X4.4803Y-1.9786
X4.4977Y-1.4345
X4.5742Y-3.4044
X4.654Y-2.2839
X4.7152Y-1.537
X4.743Y-1.3434
X4.773Y-1.409
X4.7757Y-1.7085
X4.8239Y-2.1869
X4.832Y-1.725
X4.8389Y-2.4082
X4.8475Y-2.3152
X4.8572Y-1.6967
X4.8634Y-2.248
X5.0156Y-1.6001
X5.0195Y-1.7505
X5.0469Y-1.5066
X5.0551Y-1.7451
X5.2591Y-1.4495
X5.3242Y-1.4127
X5.3968Y-1.77
X5.423Y-1.799
X5.4909Y-1.9753
X5.4961Y-1.9236
X5.5589Y-1.8801
X5.567Y-2.03
X5.5755Y-1.8463
X5.5765Y-1.8097
X5.578Y-2.109
X5.584Y-1.9056
X5.6493Y-1.5935
X5.6497Y-1.5007
T2
X1.392Y-2.059
X1.46Y-2.01
X1.465Y-2.108
X1.528Y-2.06
X1.614Y-2.234
X1.777Y-2.268
X1.78Y-2.221
X1.797Y-3.504
X2.006Y-3.555
X2.0319Y-1.5008
X2.1219Y-1.7489
X2.301Y-2.7512
X2.384Y-2.85
X2.472Y-2.749
X2.525Y-3.143
X2.5735Y-1.977
X2.59Y-2.115
X2.615Y-3.14
X2.6398Y-2.2634
X2.64Y-2.175
X2.7031Y-1.8256
X2.704Y-1.778
X2.74Y-3.016
X2.801Y-2.408
X2.814Y-2.441
X2.828Y-3.015
X2.8406Y-2.4023
X2.888Y-2.112
X2.94Y-2.052
X2.9936Y-1.797
X3.091Y-2.3155
X3.184Y-2.313
X3.312Y-2.293
X3.402Y-2.288
X3.419Y-3.135
X3.515Y-3.134
X3.638Y-3.014
X3.732Y-3.014
X4.0722Y-2.3144
X4.151Y-2.313
X4.2867Y-2.3088
X4.32Y-3.134
X4.365Y-2.312
X4.3953Y-2.2573
X4.412Y-3.135
X4.537Y-3.014
X4.621Y-1.348
X4.624Y-3.015
T3
X1.5Y-1.325
X1.6Y-1.325
X1.75Y-1.325
X1.85Y-1.325
X1.95Y-1.325
X2.05Y-1.325
X2.19Y-1.6
X2.29Y-1.6
X2.35Y-1.175
X2.35Y-1.275
X2.39Y-1.6
X2.408Y-3.23
X2.408Y-3.33
X2.45Y-1.175
X2.45Y-1.275
X2.49Y-1.6
X2.525Y-2.825
X2.525Y-3.325
X2.55Y-1.175
X2.55Y-1.275
X2.55Y-3.5
X2.59Y-1.6
X2.625Y-2.825
X2.625Y-3.325
X2.65Y-1.175
X2.65Y-1.275
X2.65Y-3.5
X2.69Y-1.6
X2.725Y-2.825
X2.725Y-3.325
X2.75Y-1.175
X2.75Y-1.275
X2.75Y-3.5
X2.79Y-1.6
X2.825Y-2.825
X2.825Y-3.325
X2.85Y-3.5
X2.89Y-1.6
X2.925Y-2.825
X2.925Y-3.325
X2.95Y-3.5
X2.99Y-1.6
X3.025Y-2.825
X3.025Y-3.325
X3.05Y-3.5
X3.09Y-1.6
X3.1Y-2.125
X3.1Y-2.625
X3.125Y-2.825
X3.125Y-3.325
X3.15Y-3.5
X3.2Y-2.125
X3.2Y-2.625
X3.225Y-2.825
X3.225Y-3.325
X3.25Y-1.175
X3.25Y-1.275
X3.25Y-1.6
X3.25Y-3.5
X3.3Y-2.125
X3.3Y-2.625
X3.35Y-1.175
X3.35Y-1.275
X3.35Y-1.6
X3.4Y-2.125
X3.4Y-2.625
X3.425Y-2.825
X3.425Y-3.325
X3.45Y-1.175
X3.45Y-1.275
X3.45Y-1.6
X3.45Y-3.5
X3.5Y-2.125
X3.5Y-2.625
X3.525Y-1.8
X3.525Y-1.9
X3.525Y-2.825
X3.525Y-3.325
X3.55Y-1.175
X3.55Y-1.275
X3.55Y-1.6
X3.55Y-3.5
X3.6Y-2.125
X3.6Y-2.625
X3.625Y-1.8
X3.625Y-1.9
X3.625Y-2.825
X3.625Y-3.325
X3.65Y-1.175
X3.65Y-1.275
X3.65Y-1.6
X3.65Y-3.5
X3.7Y-2.125
X3.7Y-2.625
X3.725Y-1.8
X3.725Y-1.9
X3.725Y-2.825
X3.725Y-3.325
X3.75Y-1.175
X3.75Y-1.275
X3.75Y-1.6
X3.75Y-3.5
X3.8Y-2.125
X3.8Y-2.625
X3.825Y-1.8
X3.825Y-1.9
X3.825Y-2.825
X3.825Y-3.325
X3.85Y-1.175
X3.85Y-1.275
X3.85Y-1.6
X3.85Y-3.5
X3.925Y-1.8
X3.925Y-1.9
X3.925Y-2.825
X3.925Y-3.325
X3.95Y-1.175
X3.95Y-1.275
X3.95Y-1.6
X3.95Y-3.5
X4.025Y-1.8
X4.025Y-1.9
X4.025Y-2.825
X4.025Y-3.325
X4.05Y-1.175
X4.05Y-1.275
X4.05Y-3.5
X4.1Y-2.125
X4.1Y-2.625
X4.125Y-1.8
X4.125Y-1.9
X4.125Y-2.825
X4.125Y-3.325
X4.15Y-1.175
X4.15Y-1.275
X4.15Y-1.6
X4.15Y-3.5
X4.2Y-2.125
X4.2Y-2.625
X4.225Y-1.8
X4.225Y-1.9
X4.25Y-1.175
X4.25Y-1.275
X4.25Y-1.6
X4.3Y-2.125
X4.3Y-2.625
X4.325Y-1.8
X4.325Y-1.9
X4.325Y-2.825
X4.325Y-3.325
X4.35Y-1.175
X4.35Y-1.275
X4.35Y-1.6
X4.35Y-3.5
X4.4Y-2.125
X4.4Y-2.625
X4.425Y-1.8
X4.425Y-1.9
X4.425Y-2.825
X4.425Y-3.325
X4.45Y-1.175
X4.45Y-1.275
X4.45Y-1.6
X4.45Y-3.5
X4.5Y-2.125
X4.5Y-2.625
X4.525Y-1.8
X4.525Y-1.9
X4.525Y-2.825
X4.525Y-3.325
X4.55Y-1.175
X4.55Y-1.275
X4.55Y-1.6
X4.55Y-3.5
X4.6Y-2.125
X4.6Y-2.625
X4.625Y-1.8
X4.625Y-1.9
X4.625Y-2.825
X4.625Y-3.325
X4.65Y-1.175
X4.65Y-1.275
X4.65Y-1.6
X4.65Y-3.5
X4.7Y-2.125
X4.7Y-2.625
X4.725Y-1.8
X4.725Y-1.9
X4.725Y-2.825
X4.725Y-3.325
X4.75Y-1.175
X4.75Y-1.275
X4.75Y-1.6
X4.75Y-3.5
X4.8Y-2.125
X4.8Y-2.625
X4.825Y-1.8
X4.825Y-1.9
X4.825Y-2.825
X4.825Y-3.325
X4.85Y-1.175
X4.85Y-1.275
X4.85Y-1.6
X4.85Y-3.5
X4.925Y-2.825
X4.925Y-3.325
X4.95Y-3.5
X5.025Y-2.825
X5.025Y-3.325
X5.05Y-3.5
X5.15Y-1.6
X5.15Y-1.7
X5.15Y-1.8
X5.15Y-1.9
X5.15Y-2.
X5.15Y-2.1
X5.15Y-2.2
X5.15Y-2.3
X5.15Y-2.4
X5.15Y-2.5
X5.15Y-2.6
X5.15Y-2.7
X5.15Y-2.8
X5.15Y-2.9
X5.15Y-3.
X5.15Y-3.1
X5.15Y-3.2
X5.15Y-3.3
X5.225Y-1.1
X5.225Y-1.2
X5.225Y-1.3
X5.25Y-1.6
X5.25Y-1.7
X5.25Y-1.8
X5.25Y-1.9
X5.25Y-2.
X5.25Y-2.1
X5.25Y-2.2
X5.25Y-2.3
X5.25Y-2.4
X5.25Y-2.5
X5.25Y-2.6
X5.25Y-2.7
X5.25Y-2.8
X5.25Y-2.9
X5.25Y-3.
X5.25Y-3.1
X5.25Y-3.2
X5.25Y-3.3
X5.5Y-1.35
X5.5Y-1.45
X5.5Y-1.55
X5.5Y-1.65
X5.5Y-1.75
X5.5Y-2.175
X5.5Y-2.275
X5.5Y-2.375
X5.5Y-2.475
X5.5Y-2.575
X5.5Y-3.
X5.5Y-3.1
X5.5Y-3.2
X5.5Y-3.3
X5.5Y-3.4
X5.6Y-1.35
X5.6Y-1.45
X5.6Y-1.55
X5.6Y-1.65
X5.6Y-1.75
X5.6Y-2.175
X5.6Y-2.275
X5.6Y-2.375
X5.6Y-2.475
X5.6Y-2.575
X5.6Y-3.
X5.6Y-3.1
X5.6Y-3.2
X5.6Y-3.3
X5.6Y-3.4
T4
X1.8319Y-2.925
X1.9681Y-2.625
X2.1103Y-2.3854
X2.1569Y-3.4
X2.2465Y-2.0854
X2.2931Y-3.1
T5
X1.125Y-1.75
X1.325Y-1.75
X1.65Y-2.5
X1.65Y-2.7
X1.65Y-2.9
X1.65Y-3.1
X1.65Y-3.3
X1.65Y-3.5
T0
M30
