%FSLAX34Y34*%
G04 Gerber Fmt 3.4, Leading zero omitted, Abs format*
G04 (created by PCBNEW (2014-06-10 BZR 4935)-product) date 26/06/2014 07:56:29*
%MOIN*%
G01*
G70*
G90*
G04 APERTURE LIST*
%ADD10C,0.005906*%
%ADD11C,0.008000*%
%ADD12R,0.059055X0.051181*%
%ADD13R,0.023600X0.039400*%
%ADD14R,0.059055X0.078740*%
%ADD15O,0.059055X0.078740*%
%ADD16R,0.078740X0.059055*%
%ADD17O,0.078740X0.059055*%
%ADD18R,0.062992X0.011811*%
%ADD19C,0.149606*%
%ADD20C,0.078740*%
%ADD21C,0.098425*%
%ADD22R,0.078740X0.078740*%
%ADD23O,0.078740X0.078740*%
%ADD24R,0.023622X0.023622*%
%ADD25R,0.043307X0.039370*%
%ADD26R,0.039370X0.043307*%
G04 APERTURE END LIST*
G54D10*
X46728Y-11190D02*
X45271Y-11190D01*
X45271Y-11190D02*
X45271Y-10560D01*
X45271Y-10560D02*
X46728Y-10560D01*
X46728Y-10560D02*
X46728Y-11190D01*
X43271Y-10604D02*
X44728Y-10604D01*
X44728Y-10604D02*
X44728Y-11234D01*
X44728Y-11234D02*
X43271Y-11234D01*
X43271Y-11234D02*
X43271Y-10604D01*
X23271Y-10435D02*
X24728Y-10435D01*
X24728Y-10435D02*
X24728Y-11064D01*
X24728Y-11064D02*
X23271Y-11064D01*
X23271Y-11064D02*
X23271Y-10435D01*
X25021Y-10435D02*
X26478Y-10435D01*
X26478Y-10435D02*
X26478Y-11064D01*
X26478Y-11064D02*
X25021Y-11064D01*
X25021Y-11064D02*
X25021Y-10435D01*
X26771Y-10435D02*
X28228Y-10435D01*
X28228Y-10435D02*
X28228Y-11064D01*
X28228Y-11064D02*
X26771Y-11064D01*
X26771Y-11064D02*
X26771Y-10435D01*
X48874Y-17988D02*
G75*
G03X48874Y-17988I-162J0D01*
G74*
G01*
X50129Y-19090D02*
X50129Y-17909D01*
X48870Y-19090D02*
X48870Y-18224D01*
X28032Y-11999D02*
G75*
G03X28032Y-11999I-162J0D01*
G74*
G01*
X29287Y-13102D02*
X29287Y-11921D01*
X28027Y-13102D02*
X28027Y-12236D01*
X23400Y-16750D02*
X23400Y-18750D01*
X23400Y-18750D02*
X20400Y-18750D01*
X20400Y-18750D02*
X20400Y-16750D01*
X20400Y-16750D02*
X23400Y-16750D01*
X39050Y-23500D02*
X41050Y-23500D01*
X41050Y-23500D02*
X41050Y-26500D01*
X41050Y-26500D02*
X39050Y-26500D01*
X39050Y-26500D02*
X39050Y-23500D01*
X41059Y-33000D02*
G75*
G03X41059Y-33000I-559J0D01*
G74*
G01*
X41059Y-22000D02*
G75*
G03X41059Y-22000I-559J0D01*
G74*
G01*
X21059Y-16000D02*
G75*
G03X21059Y-16000I-559J0D01*
G74*
G01*
X50559Y-16000D02*
G75*
G03X50559Y-16000I-559J0D01*
G74*
G01*
X53059Y-35000D02*
G75*
G03X53059Y-35000I-559J0D01*
G74*
G01*
X20559Y-35000D02*
G75*
G03X20559Y-35000I-559J0D01*
G74*
G01*
X12000Y-23250D02*
X18250Y-23250D01*
X18250Y-23250D02*
X18250Y-18750D01*
X18250Y-18750D02*
X12000Y-18750D01*
X12000Y-18750D02*
X12000Y-23250D01*
X13750Y-34750D02*
X19000Y-34750D01*
X19000Y-34750D02*
X19000Y-31250D01*
X19000Y-31250D02*
X13750Y-31250D01*
X13750Y-31250D02*
X13750Y-34750D01*
X51000Y-33500D02*
X53000Y-33500D01*
X53000Y-33500D02*
X53000Y-15500D01*
X53000Y-15500D02*
X51000Y-15500D01*
X51000Y-15500D02*
X51000Y-33500D01*
X51000Y-34500D02*
X43000Y-34500D01*
X51000Y-35500D02*
X51000Y-34500D01*
X43000Y-35500D02*
X51000Y-35500D01*
X43000Y-34500D02*
X43000Y-35500D01*
X34000Y-34500D02*
X34000Y-35500D01*
X34000Y-35500D02*
X42000Y-35500D01*
X42000Y-35500D02*
X42000Y-34500D01*
X42000Y-34500D02*
X34000Y-34500D01*
X33000Y-34500D02*
X25000Y-34500D01*
X33000Y-35500D02*
X33000Y-34500D01*
X25000Y-35500D02*
X33000Y-35500D01*
X25000Y-34500D02*
X25000Y-35500D01*
X41000Y-15500D02*
X41000Y-16500D01*
X41000Y-16500D02*
X49000Y-16500D01*
X49000Y-16500D02*
X49000Y-15500D01*
X49000Y-15500D02*
X41000Y-15500D01*
X32000Y-15500D02*
X40000Y-15500D01*
X40000Y-15500D02*
X40000Y-16500D01*
X40000Y-16500D02*
X32000Y-16500D01*
X32000Y-16500D02*
X32000Y-15500D01*
X21400Y-15500D02*
X31400Y-15500D01*
X31400Y-15500D02*
X31400Y-16500D01*
X31400Y-16500D02*
X21400Y-16500D01*
X21400Y-16500D02*
X21400Y-15500D01*
X21400Y-16500D02*
X21400Y-15500D01*
X21400Y-15500D02*
X31400Y-15500D01*
X31400Y-15500D02*
X31400Y-16500D01*
X31400Y-16500D02*
X21400Y-16500D01*
X21650Y-15000D02*
X22150Y-15000D01*
X22150Y-15000D02*
X21900Y-15500D01*
X21650Y-15000D02*
X21900Y-15500D01*
X25000Y-35500D02*
X25000Y-34500D01*
X25000Y-34500D02*
X33000Y-34500D01*
X33000Y-34500D02*
X33000Y-35500D01*
X33000Y-35500D02*
X25000Y-35500D01*
X25250Y-34000D02*
X25750Y-34000D01*
X25750Y-34000D02*
X25500Y-34500D01*
X25250Y-34000D02*
X25500Y-34500D01*
X34000Y-35500D02*
X34000Y-34500D01*
X34000Y-34500D02*
X42000Y-34500D01*
X42000Y-34500D02*
X42000Y-35500D01*
X42000Y-35500D02*
X34000Y-35500D01*
X34250Y-34000D02*
X34750Y-34000D01*
X34750Y-34000D02*
X34500Y-34500D01*
X34250Y-34000D02*
X34500Y-34500D01*
X32000Y-16500D02*
X32000Y-15500D01*
X32000Y-15500D02*
X40000Y-15500D01*
X40000Y-15500D02*
X40000Y-16500D01*
X40000Y-16500D02*
X32000Y-16500D01*
X32250Y-15000D02*
X32750Y-15000D01*
X32750Y-15000D02*
X32500Y-15500D01*
X32250Y-15000D02*
X32500Y-15500D01*
X43000Y-35500D02*
X43000Y-34500D01*
X43000Y-34500D02*
X51000Y-34500D01*
X51000Y-34500D02*
X51000Y-35500D01*
X51000Y-35500D02*
X43000Y-35500D01*
X43250Y-34000D02*
X43750Y-34000D01*
X43750Y-34000D02*
X43500Y-34500D01*
X43250Y-34000D02*
X43500Y-34500D01*
X41000Y-16500D02*
X41000Y-15500D01*
X41000Y-15500D02*
X49000Y-15500D01*
X49000Y-15500D02*
X49000Y-16500D01*
X49000Y-16500D02*
X41000Y-16500D01*
X41250Y-15000D02*
X41750Y-15000D01*
X41750Y-15000D02*
X41500Y-15500D01*
X41250Y-15000D02*
X41500Y-15500D01*
X53000Y-15500D02*
X51000Y-15500D01*
X51000Y-15500D02*
X51000Y-33500D01*
X51000Y-33500D02*
X53000Y-33500D01*
X53000Y-33500D02*
X53000Y-15500D01*
X50500Y-15750D02*
X50500Y-16250D01*
X50500Y-16250D02*
X51000Y-16000D01*
X50500Y-15750D02*
X51000Y-16000D01*
X53775Y-20777D02*
X53775Y-18139D01*
X56767Y-18139D02*
X56767Y-20777D01*
X54917Y-20777D02*
G75*
G02X55625Y-20777I354J0D01*
G74*
G01*
X53775Y-18139D02*
X56767Y-18139D01*
X56767Y-20777D02*
X53775Y-20777D01*
G54D11*
X54213Y-21008D02*
G75*
G03X54213Y-21008I-100J0D01*
G74*
G01*
G54D10*
X40578Y-14846D02*
G75*
G03X40578Y-14846I-78J0D01*
G74*
G01*
X40795Y-14413D02*
X40795Y-14629D01*
X40736Y-14629D02*
X40736Y-14413D01*
X40834Y-14413D02*
X40834Y-14629D01*
X40834Y-14629D02*
X40696Y-14629D01*
X40224Y-14413D02*
X40224Y-14629D01*
X40263Y-14629D02*
X40263Y-14413D01*
X40165Y-14413D02*
X40165Y-14629D01*
X40165Y-14629D02*
X40303Y-14629D01*
X40165Y-13586D02*
X40165Y-14413D01*
X40165Y-14413D02*
X40303Y-14413D01*
X40303Y-14413D02*
X40303Y-14629D01*
X40303Y-14629D02*
X40696Y-14629D01*
X40696Y-14629D02*
X40696Y-14413D01*
X40696Y-14413D02*
X40834Y-14413D01*
X40834Y-14413D02*
X40834Y-13586D01*
X40834Y-13586D02*
X40696Y-13586D01*
X40696Y-13586D02*
X40696Y-13370D01*
X40696Y-13370D02*
X40303Y-13370D01*
X40303Y-13370D02*
X40303Y-13586D01*
X40303Y-13586D02*
X40165Y-13586D01*
X39578Y-14846D02*
G75*
G03X39578Y-14846I-78J0D01*
G74*
G01*
X39795Y-14413D02*
X39795Y-14629D01*
X39736Y-14629D02*
X39736Y-14413D01*
X39834Y-14413D02*
X39834Y-14629D01*
X39834Y-14629D02*
X39696Y-14629D01*
X39224Y-14413D02*
X39224Y-14629D01*
X39263Y-14629D02*
X39263Y-14413D01*
X39165Y-14413D02*
X39165Y-14629D01*
X39165Y-14629D02*
X39303Y-14629D01*
X39165Y-13586D02*
X39165Y-14413D01*
X39165Y-14413D02*
X39303Y-14413D01*
X39303Y-14413D02*
X39303Y-14629D01*
X39303Y-14629D02*
X39696Y-14629D01*
X39696Y-14629D02*
X39696Y-14413D01*
X39696Y-14413D02*
X39834Y-14413D01*
X39834Y-14413D02*
X39834Y-13586D01*
X39834Y-13586D02*
X39696Y-13586D01*
X39696Y-13586D02*
X39696Y-13370D01*
X39696Y-13370D02*
X39303Y-13370D01*
X39303Y-13370D02*
X39303Y-13586D01*
X39303Y-13586D02*
X39165Y-13586D01*
X41578Y-14846D02*
G75*
G03X41578Y-14846I-78J0D01*
G74*
G01*
X41795Y-14413D02*
X41795Y-14629D01*
X41736Y-14629D02*
X41736Y-14413D01*
X41834Y-14413D02*
X41834Y-14629D01*
X41834Y-14629D02*
X41696Y-14629D01*
X41224Y-14413D02*
X41224Y-14629D01*
X41263Y-14629D02*
X41263Y-14413D01*
X41165Y-14413D02*
X41165Y-14629D01*
X41165Y-14629D02*
X41303Y-14629D01*
X41165Y-13586D02*
X41165Y-14413D01*
X41165Y-14413D02*
X41303Y-14413D01*
X41303Y-14413D02*
X41303Y-14629D01*
X41303Y-14629D02*
X41696Y-14629D01*
X41696Y-14629D02*
X41696Y-14413D01*
X41696Y-14413D02*
X41834Y-14413D01*
X41834Y-14413D02*
X41834Y-13586D01*
X41834Y-13586D02*
X41696Y-13586D01*
X41696Y-13586D02*
X41696Y-13370D01*
X41696Y-13370D02*
X41303Y-13370D01*
X41303Y-13370D02*
X41303Y-13586D01*
X41303Y-13586D02*
X41165Y-13586D01*
X42578Y-14846D02*
G75*
G03X42578Y-14846I-78J0D01*
G74*
G01*
X42795Y-14413D02*
X42795Y-14629D01*
X42736Y-14629D02*
X42736Y-14413D01*
X42834Y-14413D02*
X42834Y-14629D01*
X42834Y-14629D02*
X42696Y-14629D01*
X42224Y-14413D02*
X42224Y-14629D01*
X42263Y-14629D02*
X42263Y-14413D01*
X42165Y-14413D02*
X42165Y-14629D01*
X42165Y-14629D02*
X42303Y-14629D01*
X42165Y-13586D02*
X42165Y-14413D01*
X42165Y-14413D02*
X42303Y-14413D01*
X42303Y-14413D02*
X42303Y-14629D01*
X42303Y-14629D02*
X42696Y-14629D01*
X42696Y-14629D02*
X42696Y-14413D01*
X42696Y-14413D02*
X42834Y-14413D01*
X42834Y-14413D02*
X42834Y-13586D01*
X42834Y-13586D02*
X42696Y-13586D01*
X42696Y-13586D02*
X42696Y-13370D01*
X42696Y-13370D02*
X42303Y-13370D01*
X42303Y-13370D02*
X42303Y-13586D01*
X42303Y-13586D02*
X42165Y-13586D01*
X45982Y-20000D02*
G75*
G03X45982Y-20000I-78J0D01*
G74*
G01*
X46336Y-20295D02*
X46120Y-20295D01*
X46120Y-20236D02*
X46336Y-20236D01*
X46336Y-20334D02*
X46120Y-20334D01*
X46120Y-20334D02*
X46120Y-20196D01*
X46336Y-19724D02*
X46120Y-19724D01*
X46120Y-19763D02*
X46336Y-19763D01*
X46336Y-19665D02*
X46120Y-19665D01*
X46120Y-19665D02*
X46120Y-19803D01*
X47163Y-19665D02*
X46336Y-19665D01*
X46336Y-19665D02*
X46336Y-19803D01*
X46336Y-19803D02*
X46120Y-19803D01*
X46120Y-19803D02*
X46120Y-20196D01*
X46120Y-20196D02*
X46336Y-20196D01*
X46336Y-20196D02*
X46336Y-20334D01*
X46336Y-20334D02*
X47163Y-20334D01*
X47163Y-20334D02*
X47163Y-20196D01*
X47163Y-20196D02*
X47379Y-20196D01*
X47379Y-20196D02*
X47379Y-19803D01*
X47379Y-19803D02*
X47163Y-19803D01*
X47163Y-19803D02*
X47163Y-19665D01*
X49175Y-20000D02*
G75*
G03X49175Y-20000I-78J0D01*
G74*
G01*
X48663Y-19704D02*
X48879Y-19704D01*
X48879Y-19763D02*
X48663Y-19763D01*
X48663Y-19665D02*
X48879Y-19665D01*
X48879Y-19665D02*
X48879Y-19803D01*
X48663Y-20275D02*
X48879Y-20275D01*
X48879Y-20236D02*
X48663Y-20236D01*
X48663Y-20334D02*
X48879Y-20334D01*
X48879Y-20334D02*
X48879Y-20196D01*
X47836Y-20334D02*
X48663Y-20334D01*
X48663Y-20334D02*
X48663Y-20196D01*
X48663Y-20196D02*
X48879Y-20196D01*
X48879Y-20196D02*
X48879Y-19803D01*
X48879Y-19803D02*
X48663Y-19803D01*
X48663Y-19803D02*
X48663Y-19665D01*
X48663Y-19665D02*
X47836Y-19665D01*
X47836Y-19665D02*
X47836Y-19803D01*
X47836Y-19803D02*
X47620Y-19803D01*
X47620Y-19803D02*
X47620Y-20196D01*
X47620Y-20196D02*
X47836Y-20196D01*
X47836Y-20196D02*
X47836Y-20334D01*
X22482Y-13500D02*
G75*
G03X22482Y-13500I-78J0D01*
G74*
G01*
X22836Y-13795D02*
X22620Y-13795D01*
X22620Y-13736D02*
X22836Y-13736D01*
X22836Y-13834D02*
X22620Y-13834D01*
X22620Y-13834D02*
X22620Y-13696D01*
X22836Y-13224D02*
X22620Y-13224D01*
X22620Y-13263D02*
X22836Y-13263D01*
X22836Y-13165D02*
X22620Y-13165D01*
X22620Y-13165D02*
X22620Y-13303D01*
X23663Y-13165D02*
X22836Y-13165D01*
X22836Y-13165D02*
X22836Y-13303D01*
X22836Y-13303D02*
X22620Y-13303D01*
X22620Y-13303D02*
X22620Y-13696D01*
X22620Y-13696D02*
X22836Y-13696D01*
X22836Y-13696D02*
X22836Y-13834D01*
X22836Y-13834D02*
X23663Y-13834D01*
X23663Y-13834D02*
X23663Y-13696D01*
X23663Y-13696D02*
X23879Y-13696D01*
X23879Y-13696D02*
X23879Y-13303D01*
X23879Y-13303D02*
X23663Y-13303D01*
X23663Y-13303D02*
X23663Y-13165D01*
X25925Y-13500D02*
G75*
G03X25925Y-13500I-78J0D01*
G74*
G01*
X25413Y-13204D02*
X25629Y-13204D01*
X25629Y-13263D02*
X25413Y-13263D01*
X25413Y-13165D02*
X25629Y-13165D01*
X25629Y-13165D02*
X25629Y-13303D01*
X25413Y-13775D02*
X25629Y-13775D01*
X25629Y-13736D02*
X25413Y-13736D01*
X25413Y-13834D02*
X25629Y-13834D01*
X25629Y-13834D02*
X25629Y-13696D01*
X24586Y-13834D02*
X25413Y-13834D01*
X25413Y-13834D02*
X25413Y-13696D01*
X25413Y-13696D02*
X25629Y-13696D01*
X25629Y-13696D02*
X25629Y-13303D01*
X25629Y-13303D02*
X25413Y-13303D01*
X25413Y-13303D02*
X25413Y-13165D01*
X25413Y-13165D02*
X24586Y-13165D01*
X24586Y-13165D02*
X24586Y-13303D01*
X24586Y-13303D02*
X24370Y-13303D01*
X24370Y-13303D02*
X24370Y-13696D01*
X24370Y-13696D02*
X24586Y-13696D01*
X24586Y-13696D02*
X24586Y-13834D01*
X50610Y-19744D02*
X50610Y-20255D01*
X50610Y-20255D02*
X49389Y-20255D01*
X49389Y-20255D02*
X49389Y-19744D01*
X49389Y-19744D02*
X50610Y-19744D01*
X50610Y-19744D02*
X50610Y-19744D01*
X39730Y-16814D02*
X39730Y-17325D01*
X39730Y-17325D02*
X38509Y-17325D01*
X38509Y-17325D02*
X38509Y-16814D01*
X38509Y-16814D02*
X39730Y-16814D01*
X39730Y-16814D02*
X39730Y-16814D01*
X40889Y-17255D02*
X40889Y-16744D01*
X40889Y-16744D02*
X42110Y-16744D01*
X42110Y-16744D02*
X42110Y-17255D01*
X42110Y-17255D02*
X40889Y-17255D01*
X40889Y-17255D02*
X40889Y-17255D01*
X39939Y-20115D02*
X39939Y-19604D01*
X39939Y-19604D02*
X41160Y-19604D01*
X41160Y-19604D02*
X41160Y-20115D01*
X41160Y-20115D02*
X39939Y-20115D01*
X39939Y-20115D02*
X39939Y-20115D01*
X37680Y-19624D02*
X37680Y-20135D01*
X37680Y-20135D02*
X36459Y-20135D01*
X36459Y-20135D02*
X36459Y-19624D01*
X36459Y-19624D02*
X37680Y-19624D01*
X37680Y-19624D02*
X37680Y-19624D01*
X49103Y-10969D02*
X49615Y-10969D01*
X49615Y-10969D02*
X49615Y-12190D01*
X49615Y-12190D02*
X49103Y-12190D01*
X49103Y-12190D02*
X49103Y-10969D01*
X49103Y-10969D02*
X49103Y-10969D01*
X49903Y-10969D02*
X50415Y-10969D01*
X50415Y-10969D02*
X50415Y-12190D01*
X50415Y-12190D02*
X49903Y-12190D01*
X49903Y-12190D02*
X49903Y-10969D01*
X49903Y-10969D02*
X49903Y-10969D01*
X30389Y-19065D02*
X30389Y-18554D01*
X30389Y-18554D02*
X31610Y-18554D01*
X31610Y-18554D02*
X31610Y-19065D01*
X31610Y-19065D02*
X30389Y-19065D01*
X30389Y-19065D02*
X30389Y-19065D01*
X30429Y-18175D02*
X30429Y-17664D01*
X30429Y-17664D02*
X31650Y-17664D01*
X31650Y-17664D02*
X31650Y-18175D01*
X31650Y-18175D02*
X30429Y-18175D01*
X30429Y-18175D02*
X30429Y-18175D01*
X57068Y-22660D02*
X56556Y-22660D01*
X56556Y-22660D02*
X56556Y-21439D01*
X56556Y-21439D02*
X57068Y-21439D01*
X57068Y-21439D02*
X57068Y-22660D01*
X57068Y-22660D02*
X57068Y-22660D01*
X37009Y-17335D02*
X37009Y-16824D01*
X37009Y-16824D02*
X38230Y-16824D01*
X38230Y-16824D02*
X38230Y-17335D01*
X38230Y-17335D02*
X37009Y-17335D01*
X37009Y-17335D02*
X37009Y-17335D01*
X35499Y-17355D02*
X35499Y-16844D01*
X35499Y-16844D02*
X36720Y-16844D01*
X36720Y-16844D02*
X36720Y-17355D01*
X36720Y-17355D02*
X35499Y-17355D01*
X35499Y-17355D02*
X35499Y-17355D01*
X49635Y-13610D02*
X49124Y-13610D01*
X49124Y-13610D02*
X49124Y-12389D01*
X49124Y-12389D02*
X49635Y-12389D01*
X49635Y-12389D02*
X49635Y-13610D01*
X49635Y-13610D02*
X49635Y-13610D01*
X50415Y-13610D02*
X49903Y-13610D01*
X49903Y-13610D02*
X49903Y-12389D01*
X49903Y-12389D02*
X50415Y-12389D01*
X50415Y-12389D02*
X50415Y-13610D01*
X50415Y-13610D02*
X50415Y-13610D01*
X20505Y-35110D02*
X19994Y-35110D01*
X19994Y-35110D02*
X19994Y-33889D01*
X19994Y-33889D02*
X20505Y-33889D01*
X20505Y-33889D02*
X20505Y-35110D01*
X20505Y-35110D02*
X20505Y-35110D01*
X17751Y-30710D02*
X17239Y-30710D01*
X17239Y-30710D02*
X17239Y-29489D01*
X17239Y-29489D02*
X17751Y-29489D01*
X17751Y-29489D02*
X17751Y-30710D01*
X17751Y-30710D02*
X17751Y-30710D01*
X18005Y-26610D02*
X17494Y-26610D01*
X17494Y-26610D02*
X17494Y-25389D01*
X17494Y-25389D02*
X18005Y-25389D01*
X18005Y-25389D02*
X18005Y-26610D01*
X18005Y-26610D02*
X18005Y-26610D01*
%LPC*%
G54D12*
X45625Y-10875D03*
X46374Y-10875D03*
X44374Y-10919D03*
X43625Y-10919D03*
X24374Y-10750D03*
X23625Y-10750D03*
X26124Y-10750D03*
X25375Y-10750D03*
X27874Y-10750D03*
X27125Y-10750D03*
G54D13*
X49125Y-18084D03*
X49500Y-18084D03*
X49875Y-18084D03*
X49875Y-18916D03*
X49500Y-18916D03*
X49125Y-18916D03*
X28282Y-12095D03*
X28657Y-12095D03*
X29032Y-12095D03*
X29032Y-12927D03*
X28657Y-12927D03*
X28282Y-12927D03*
G54D14*
X21900Y-16000D03*
G54D15*
X22900Y-16000D03*
X23900Y-16000D03*
X24900Y-16000D03*
X25900Y-16000D03*
X26900Y-16000D03*
X27900Y-16000D03*
X28900Y-16000D03*
X29900Y-16000D03*
X30900Y-16000D03*
G54D14*
X25500Y-35000D03*
G54D15*
X26500Y-35000D03*
X27500Y-35000D03*
X28500Y-35000D03*
X29500Y-35000D03*
X30500Y-35000D03*
X31500Y-35000D03*
X32500Y-35000D03*
G54D14*
X34500Y-35000D03*
G54D15*
X35500Y-35000D03*
X36500Y-35000D03*
X37500Y-35000D03*
X38500Y-35000D03*
X39500Y-35000D03*
X40500Y-35000D03*
X41500Y-35000D03*
G54D14*
X32500Y-16000D03*
G54D15*
X33500Y-16000D03*
X34500Y-16000D03*
X35500Y-16000D03*
X36500Y-16000D03*
X37500Y-16000D03*
X38500Y-16000D03*
X39500Y-16000D03*
G54D14*
X43500Y-35000D03*
G54D15*
X44500Y-35000D03*
X45500Y-35000D03*
X46500Y-35000D03*
X47500Y-35000D03*
X48500Y-35000D03*
X49500Y-35000D03*
X50500Y-35000D03*
G54D14*
X41500Y-16000D03*
G54D15*
X42500Y-16000D03*
X43500Y-16000D03*
X44500Y-16000D03*
X45500Y-16000D03*
X46500Y-16000D03*
X47500Y-16000D03*
X48500Y-16000D03*
G54D16*
X51500Y-16000D03*
G54D17*
X51500Y-17000D03*
X51500Y-18000D03*
X51500Y-19000D03*
X51500Y-20000D03*
X51500Y-21000D03*
X51500Y-22000D03*
X51500Y-23000D03*
X51500Y-24000D03*
X51500Y-25000D03*
X51500Y-26000D03*
X51500Y-27000D03*
X51500Y-28000D03*
X51500Y-29000D03*
X51500Y-30000D03*
X51500Y-31000D03*
X51500Y-32000D03*
X51500Y-33000D03*
X52500Y-16000D03*
X52500Y-17000D03*
X52500Y-18000D03*
X52500Y-19000D03*
X52500Y-20000D03*
X52500Y-21000D03*
X52500Y-22000D03*
X52500Y-23000D03*
X52500Y-24000D03*
X52500Y-25000D03*
X52500Y-26000D03*
X52500Y-27000D03*
X52500Y-28000D03*
X52500Y-29000D03*
X52500Y-30000D03*
X52500Y-31000D03*
X52500Y-32000D03*
X52500Y-33000D03*
G54D14*
X43250Y-33250D03*
G54D15*
X44250Y-33250D03*
X45250Y-33250D03*
X46250Y-33250D03*
X47250Y-33250D03*
X48250Y-33250D03*
X49250Y-33250D03*
X50250Y-33250D03*
G54D14*
X43250Y-28250D03*
G54D15*
X44250Y-28250D03*
X45250Y-28250D03*
X46250Y-28250D03*
X47250Y-28250D03*
X48250Y-28250D03*
X49250Y-28250D03*
X50250Y-28250D03*
G54D14*
X31000Y-26250D03*
G54D15*
X32000Y-26250D03*
X33000Y-26250D03*
X34000Y-26250D03*
X35000Y-26250D03*
X36000Y-26250D03*
X37000Y-26250D03*
X38000Y-26250D03*
G54D14*
X31000Y-21250D03*
G54D15*
X32000Y-21250D03*
X33000Y-21250D03*
X34000Y-21250D03*
X35000Y-21250D03*
X36000Y-21250D03*
X37000Y-21250D03*
X38000Y-21250D03*
G54D14*
X41000Y-26250D03*
G54D15*
X42000Y-26250D03*
X43000Y-26250D03*
X44000Y-26250D03*
X45000Y-26250D03*
X46000Y-26250D03*
X47000Y-26250D03*
X48000Y-26250D03*
G54D14*
X41000Y-21250D03*
G54D15*
X42000Y-21250D03*
X43000Y-21250D03*
X44000Y-21250D03*
X45000Y-21250D03*
X46000Y-21250D03*
X47000Y-21250D03*
X48000Y-21250D03*
G54D14*
X34250Y-33250D03*
G54D15*
X35250Y-33250D03*
X36250Y-33250D03*
X37250Y-33250D03*
X38250Y-33250D03*
X39250Y-33250D03*
X40250Y-33250D03*
X41250Y-33250D03*
G54D14*
X34250Y-28250D03*
G54D15*
X35250Y-28250D03*
X36250Y-28250D03*
X37250Y-28250D03*
X38250Y-28250D03*
X39250Y-28250D03*
X40250Y-28250D03*
X41250Y-28250D03*
G54D14*
X25250Y-33250D03*
G54D15*
X26250Y-33250D03*
X27250Y-33250D03*
X28250Y-33250D03*
X29250Y-33250D03*
X30250Y-33250D03*
X31250Y-33250D03*
X32250Y-33250D03*
G54D14*
X25250Y-28250D03*
G54D15*
X26250Y-28250D03*
X27250Y-28250D03*
X28250Y-28250D03*
X29250Y-28250D03*
X30250Y-28250D03*
X31250Y-28250D03*
X32250Y-28250D03*
G54D14*
X20500Y-13250D03*
G54D15*
X19500Y-13250D03*
X18500Y-13250D03*
X17500Y-13250D03*
G54D16*
X52250Y-11000D03*
G54D17*
X52250Y-12000D03*
X52250Y-13000D03*
G54D16*
X55000Y-13500D03*
G54D17*
X55000Y-14500D03*
X55000Y-15500D03*
X55000Y-16500D03*
X55000Y-17500D03*
X56000Y-13500D03*
X56000Y-14500D03*
X56000Y-15500D03*
X56000Y-16500D03*
X56000Y-17500D03*
G54D14*
X32500Y-12750D03*
G54D15*
X33500Y-12750D03*
X34500Y-12750D03*
X35500Y-12750D03*
X36500Y-12750D03*
X37500Y-12750D03*
X38500Y-12750D03*
X39500Y-12750D03*
X40500Y-12750D03*
X41500Y-12750D03*
X42500Y-12750D03*
X43500Y-12750D03*
X44500Y-12750D03*
X45500Y-12750D03*
X46500Y-12750D03*
X47500Y-12750D03*
X48500Y-12750D03*
X32500Y-11750D03*
X33500Y-11750D03*
X34500Y-11750D03*
X35500Y-11750D03*
X36500Y-11750D03*
X37500Y-11750D03*
X38500Y-11750D03*
X39500Y-11750D03*
X40500Y-11750D03*
X41500Y-11750D03*
X42500Y-11750D03*
X43500Y-11750D03*
X44500Y-11750D03*
X45500Y-11750D03*
X46500Y-11750D03*
X47500Y-11750D03*
X48500Y-11750D03*
G54D16*
X56000Y-25750D03*
G54D17*
X56000Y-24750D03*
X56000Y-23750D03*
X56000Y-22750D03*
X56000Y-21750D03*
X55000Y-25750D03*
X55000Y-24750D03*
X55000Y-23750D03*
X55000Y-22750D03*
X55000Y-21750D03*
G54D16*
X56000Y-34000D03*
G54D17*
X56000Y-33000D03*
X56000Y-32000D03*
X56000Y-31000D03*
X56000Y-30000D03*
X55000Y-34000D03*
X55000Y-33000D03*
X55000Y-32000D03*
X55000Y-31000D03*
X55000Y-30000D03*
G54D14*
X23500Y-12750D03*
G54D15*
X24500Y-12750D03*
X25500Y-12750D03*
X26500Y-12750D03*
X27500Y-12750D03*
X23500Y-11750D03*
X24500Y-11750D03*
X25500Y-11750D03*
X26500Y-11750D03*
X27500Y-11750D03*
G54D16*
X24080Y-32300D03*
G54D17*
X24080Y-33300D03*
G54D18*
X56374Y-20610D03*
X56374Y-20354D03*
X56374Y-20098D03*
X56374Y-19842D03*
X54169Y-18306D03*
X54169Y-18562D03*
X56374Y-18306D03*
X56374Y-18562D03*
X56374Y-18818D03*
X56374Y-19074D03*
X56374Y-19330D03*
X56374Y-19586D03*
X54169Y-20610D03*
X54169Y-20354D03*
X54169Y-20098D03*
X54169Y-19842D03*
X54169Y-19586D03*
X54169Y-19330D03*
X54169Y-19074D03*
X54169Y-18818D03*
G54D19*
X22250Y-32500D03*
G54D20*
X21568Y-34000D03*
X22931Y-31000D03*
G54D19*
X19000Y-27750D03*
G54D20*
X18318Y-29250D03*
X19681Y-26250D03*
G54D19*
X21783Y-22354D03*
G54D20*
X21102Y-23854D03*
X22465Y-20854D03*
G54D21*
X16500Y-25000D03*
X16500Y-27000D03*
X16500Y-29000D03*
X16500Y-31000D03*
X16500Y-33000D03*
X16500Y-35000D03*
X13250Y-17500D03*
X11250Y-17500D03*
G54D22*
X16000Y-13250D03*
G54D23*
X15000Y-13250D03*
G54D24*
X40500Y-13566D03*
X40500Y-14433D03*
X39500Y-13566D03*
X39500Y-14433D03*
X41500Y-13566D03*
X41500Y-14433D03*
X42500Y-13566D03*
X42500Y-14433D03*
X47183Y-20000D03*
X46316Y-20000D03*
X47816Y-20000D03*
X48683Y-20000D03*
X23683Y-13500D03*
X22816Y-13500D03*
X24566Y-13500D03*
X25433Y-13500D03*
G54D25*
X49665Y-20000D03*
X50334Y-20000D03*
X38785Y-17070D03*
X39454Y-17070D03*
X41834Y-17000D03*
X41165Y-17000D03*
X40884Y-19860D03*
X40215Y-19860D03*
X36735Y-19880D03*
X37404Y-19880D03*
G54D26*
X49359Y-11914D03*
X49359Y-11245D03*
X50159Y-11914D03*
X50159Y-11245D03*
G54D25*
X31334Y-18810D03*
X30665Y-18810D03*
X31374Y-17920D03*
X30705Y-17920D03*
G54D26*
X56812Y-21715D03*
X56812Y-22384D03*
G54D25*
X37954Y-17080D03*
X37285Y-17080D03*
X36444Y-17100D03*
X35775Y-17100D03*
G54D26*
X49379Y-12665D03*
X49379Y-13334D03*
X50159Y-12665D03*
X50159Y-13334D03*
X20250Y-34165D03*
X20250Y-34834D03*
X17495Y-29765D03*
X17495Y-30434D03*
X17750Y-25665D03*
X17750Y-26334D03*
G54D14*
X35250Y-19000D03*
G54D15*
X36250Y-19000D03*
X37250Y-19000D03*
X38250Y-19000D03*
X39250Y-19000D03*
X40250Y-19000D03*
X41250Y-19000D03*
X42250Y-19000D03*
X43250Y-19000D03*
X44250Y-19000D03*
X45250Y-19000D03*
X46250Y-19000D03*
X47250Y-19000D03*
X48250Y-19000D03*
X35250Y-18000D03*
X36250Y-18000D03*
X37250Y-18000D03*
X38250Y-18000D03*
X39250Y-18000D03*
X40250Y-18000D03*
X41250Y-18000D03*
X42250Y-18000D03*
X43250Y-18000D03*
X44250Y-18000D03*
X45250Y-18000D03*
X46250Y-18000D03*
X47250Y-18000D03*
X48250Y-18000D03*
M02*
