%FSLAX34Y34*%
G04 Gerber Fmt 3.4, Leading zero omitted, Abs format*
G04 (created by PCBNEW (2014-06-10 BZR 4935)-product) date 26/06/2014 20:15:07*
%MOIN*%
G01*
G70*
G90*
G04 APERTURE LIST*
%ADD10C,0.005906*%
%ADD11C,0.019685*%
%ADD12C,0.008000*%
%ADD13R,0.066929X0.059055*%
%ADD14R,0.031474X0.047274*%
%ADD15R,0.066929X0.086614*%
%ADD16O,0.066929X0.086614*%
%ADD17R,0.086614X0.066929*%
%ADD18O,0.086614X0.066929*%
%ADD19R,0.070866X0.019685*%
%ADD20C,0.157480*%
%ADD21C,0.086614*%
%ADD22C,0.106299*%
%ADD23R,0.086614X0.086614*%
%ADD24O,0.086614X0.086614*%
%ADD25R,0.031496X0.031496*%
%ADD26R,0.051181X0.047244*%
%ADD27R,0.047244X0.051181*%
G04 APERTURE END LIST*
G54D10*
G54D11*
X10715Y-35774D02*
X12093Y-35774D01*
X10715Y-34986D01*
X12093Y-34986D01*
X10715Y-34330D02*
X11633Y-34330D01*
X12093Y-34330D02*
X12027Y-34396D01*
X11961Y-34330D01*
X12027Y-34265D01*
X12093Y-34330D01*
X11961Y-34330D01*
X10780Y-33083D02*
X10715Y-33215D01*
X10715Y-33477D01*
X10780Y-33608D01*
X10846Y-33674D01*
X10977Y-33740D01*
X11371Y-33740D01*
X11502Y-33674D01*
X11568Y-33608D01*
X11633Y-33477D01*
X11633Y-33215D01*
X11568Y-33083D01*
X10780Y-31968D02*
X10715Y-32099D01*
X10715Y-32362D01*
X10780Y-32493D01*
X10912Y-32559D01*
X11437Y-32559D01*
X11568Y-32493D01*
X11633Y-32362D01*
X11633Y-32099D01*
X11568Y-31968D01*
X11437Y-31902D01*
X11305Y-31902D01*
X11174Y-32559D01*
X10715Y-29475D02*
X11371Y-29934D01*
X10715Y-30262D02*
X12093Y-30262D01*
X12093Y-29737D01*
X12027Y-29606D01*
X11961Y-29540D01*
X11830Y-29475D01*
X11633Y-29475D01*
X11502Y-29540D01*
X11437Y-29606D01*
X11371Y-29737D01*
X11371Y-30262D01*
X11108Y-28950D02*
X11108Y-28293D01*
X10715Y-29081D02*
X12093Y-28622D01*
X10715Y-28162D01*
X10715Y-27703D02*
X12093Y-27703D01*
X11108Y-27244D01*
X12093Y-26784D01*
X10715Y-26784D01*
X10715Y-26128D02*
X12093Y-26128D01*
X12093Y-25603D01*
X12027Y-25472D01*
X11961Y-25406D01*
X11830Y-25341D01*
X11633Y-25341D01*
X11502Y-25406D01*
X11437Y-25472D01*
X11371Y-25603D01*
X11371Y-26128D01*
X10780Y-24816D02*
X10715Y-24619D01*
X10715Y-24291D01*
X10780Y-24160D01*
X10846Y-24094D01*
X10977Y-24028D01*
X11108Y-24028D01*
X11240Y-24094D01*
X11305Y-24160D01*
X11371Y-24291D01*
X11437Y-24553D01*
X11502Y-24685D01*
X11568Y-24750D01*
X11699Y-24816D01*
X11830Y-24816D01*
X11961Y-24750D01*
X12027Y-24685D01*
X12093Y-24553D01*
X12093Y-24225D01*
X12027Y-24028D01*
X11633Y-22519D02*
X10715Y-22191D01*
X11633Y-21863D01*
X10715Y-20616D02*
X10715Y-21404D01*
X10715Y-21010D02*
X12093Y-21010D01*
X11896Y-21141D01*
X11765Y-21272D01*
X11699Y-21404D01*
X10846Y-20026D02*
X10780Y-19960D01*
X10715Y-20026D01*
X10780Y-20091D01*
X10846Y-20026D01*
X10715Y-20026D01*
X12093Y-19107D02*
X12093Y-18976D01*
X12027Y-18845D01*
X11961Y-18779D01*
X11830Y-18713D01*
X11568Y-18648D01*
X11240Y-18648D01*
X10977Y-18713D01*
X10846Y-18779D01*
X10780Y-18845D01*
X10715Y-18976D01*
X10715Y-19107D01*
X10780Y-19238D01*
X10846Y-19304D01*
X10977Y-19370D01*
X11240Y-19435D01*
X11568Y-19435D01*
X11830Y-19370D01*
X11961Y-19304D01*
X12027Y-19238D01*
X12093Y-19107D01*
G54D10*
X46728Y-11190D02*
X45271Y-11190D01*
X45271Y-11190D02*
X45271Y-10560D01*
X45271Y-10560D02*
X46728Y-10560D01*
X46728Y-10560D02*
X46728Y-11190D01*
X43271Y-10604D02*
X44728Y-10604D01*
X44728Y-10604D02*
X44728Y-11234D01*
X44728Y-11234D02*
X43271Y-11234D01*
X43271Y-11234D02*
X43271Y-10604D01*
X23271Y-10435D02*
X24728Y-10435D01*
X24728Y-10435D02*
X24728Y-11064D01*
X24728Y-11064D02*
X23271Y-11064D01*
X23271Y-11064D02*
X23271Y-10435D01*
X25021Y-10435D02*
X26478Y-10435D01*
X26478Y-10435D02*
X26478Y-11064D01*
X26478Y-11064D02*
X25021Y-11064D01*
X25021Y-11064D02*
X25021Y-10435D01*
X26771Y-10435D02*
X28228Y-10435D01*
X28228Y-10435D02*
X28228Y-11064D01*
X28228Y-11064D02*
X26771Y-11064D01*
X26771Y-11064D02*
X26771Y-10435D01*
X48874Y-17988D02*
G75*
G03X48874Y-17988I-162J0D01*
G74*
G01*
X50129Y-19090D02*
X50129Y-17909D01*
X48870Y-19090D02*
X48870Y-18224D01*
X28032Y-11999D02*
G75*
G03X28032Y-11999I-162J0D01*
G74*
G01*
X29287Y-13102D02*
X29287Y-11921D01*
X28027Y-13102D02*
X28027Y-12236D01*
X21400Y-16500D02*
X21400Y-15500D01*
X21400Y-15500D02*
X31400Y-15500D01*
X31400Y-15500D02*
X31400Y-16500D01*
X31400Y-16500D02*
X21400Y-16500D01*
X21650Y-15000D02*
X22150Y-15000D01*
X22150Y-15000D02*
X21900Y-15500D01*
X21650Y-15000D02*
X21900Y-15500D01*
X25000Y-35500D02*
X25000Y-34500D01*
X25000Y-34500D02*
X33000Y-34500D01*
X33000Y-34500D02*
X33000Y-35500D01*
X33000Y-35500D02*
X25000Y-35500D01*
X25250Y-34000D02*
X25750Y-34000D01*
X25750Y-34000D02*
X25500Y-34500D01*
X25250Y-34000D02*
X25500Y-34500D01*
X34000Y-35500D02*
X34000Y-34500D01*
X34000Y-34500D02*
X42000Y-34500D01*
X42000Y-34500D02*
X42000Y-35500D01*
X42000Y-35500D02*
X34000Y-35500D01*
X34250Y-34000D02*
X34750Y-34000D01*
X34750Y-34000D02*
X34500Y-34500D01*
X34250Y-34000D02*
X34500Y-34500D01*
X32000Y-16500D02*
X32000Y-15500D01*
X32000Y-15500D02*
X40000Y-15500D01*
X40000Y-15500D02*
X40000Y-16500D01*
X40000Y-16500D02*
X32000Y-16500D01*
X32250Y-15000D02*
X32750Y-15000D01*
X32750Y-15000D02*
X32500Y-15500D01*
X32250Y-15000D02*
X32500Y-15500D01*
X43000Y-35500D02*
X43000Y-34500D01*
X43000Y-34500D02*
X51000Y-34500D01*
X51000Y-34500D02*
X51000Y-35500D01*
X51000Y-35500D02*
X43000Y-35500D01*
X43250Y-34000D02*
X43750Y-34000D01*
X43750Y-34000D02*
X43500Y-34500D01*
X43250Y-34000D02*
X43500Y-34500D01*
X41000Y-16500D02*
X41000Y-15500D01*
X41000Y-15500D02*
X49000Y-15500D01*
X49000Y-15500D02*
X49000Y-16500D01*
X49000Y-16500D02*
X41000Y-16500D01*
X41250Y-15000D02*
X41750Y-15000D01*
X41750Y-15000D02*
X41500Y-15500D01*
X41250Y-15000D02*
X41500Y-15500D01*
X53000Y-15500D02*
X51000Y-15500D01*
X51000Y-15500D02*
X51000Y-33500D01*
X51000Y-33500D02*
X53000Y-33500D01*
X53000Y-33500D02*
X53000Y-15500D01*
X50500Y-15750D02*
X50500Y-16250D01*
X50500Y-16250D02*
X51000Y-16000D01*
X50500Y-15750D02*
X51000Y-16000D01*
X53775Y-20777D02*
X53775Y-18139D01*
X56767Y-18139D02*
X56767Y-20777D01*
X54917Y-20777D02*
G75*
G02X55625Y-20777I354J0D01*
G74*
G01*
X53775Y-18139D02*
X56767Y-18139D01*
X56767Y-20777D02*
X53775Y-20777D01*
G54D12*
X54213Y-21008D02*
G75*
G03X54213Y-21008I-100J0D01*
G74*
G01*
G54D10*
X40578Y-14846D02*
G75*
G03X40578Y-14846I-78J0D01*
G74*
G01*
X40795Y-14413D02*
X40795Y-14629D01*
X40736Y-14629D02*
X40736Y-14413D01*
X40834Y-14413D02*
X40834Y-14629D01*
X40834Y-14629D02*
X40696Y-14629D01*
X40224Y-14413D02*
X40224Y-14629D01*
X40263Y-14629D02*
X40263Y-14413D01*
X40165Y-14413D02*
X40165Y-14629D01*
X40165Y-14629D02*
X40303Y-14629D01*
X40165Y-13586D02*
X40165Y-14413D01*
X40165Y-14413D02*
X40303Y-14413D01*
X40303Y-14413D02*
X40303Y-14629D01*
X40303Y-14629D02*
X40696Y-14629D01*
X40696Y-14629D02*
X40696Y-14413D01*
X40696Y-14413D02*
X40834Y-14413D01*
X40834Y-14413D02*
X40834Y-13586D01*
X40834Y-13586D02*
X40696Y-13586D01*
X40696Y-13586D02*
X40696Y-13370D01*
X40696Y-13370D02*
X40303Y-13370D01*
X40303Y-13370D02*
X40303Y-13586D01*
X40303Y-13586D02*
X40165Y-13586D01*
X39578Y-14846D02*
G75*
G03X39578Y-14846I-78J0D01*
G74*
G01*
X39795Y-14413D02*
X39795Y-14629D01*
X39736Y-14629D02*
X39736Y-14413D01*
X39834Y-14413D02*
X39834Y-14629D01*
X39834Y-14629D02*
X39696Y-14629D01*
X39224Y-14413D02*
X39224Y-14629D01*
X39263Y-14629D02*
X39263Y-14413D01*
X39165Y-14413D02*
X39165Y-14629D01*
X39165Y-14629D02*
X39303Y-14629D01*
X39165Y-13586D02*
X39165Y-14413D01*
X39165Y-14413D02*
X39303Y-14413D01*
X39303Y-14413D02*
X39303Y-14629D01*
X39303Y-14629D02*
X39696Y-14629D01*
X39696Y-14629D02*
X39696Y-14413D01*
X39696Y-14413D02*
X39834Y-14413D01*
X39834Y-14413D02*
X39834Y-13586D01*
X39834Y-13586D02*
X39696Y-13586D01*
X39696Y-13586D02*
X39696Y-13370D01*
X39696Y-13370D02*
X39303Y-13370D01*
X39303Y-13370D02*
X39303Y-13586D01*
X39303Y-13586D02*
X39165Y-13586D01*
X41578Y-14846D02*
G75*
G03X41578Y-14846I-78J0D01*
G74*
G01*
X41795Y-14413D02*
X41795Y-14629D01*
X41736Y-14629D02*
X41736Y-14413D01*
X41834Y-14413D02*
X41834Y-14629D01*
X41834Y-14629D02*
X41696Y-14629D01*
X41224Y-14413D02*
X41224Y-14629D01*
X41263Y-14629D02*
X41263Y-14413D01*
X41165Y-14413D02*
X41165Y-14629D01*
X41165Y-14629D02*
X41303Y-14629D01*
X41165Y-13586D02*
X41165Y-14413D01*
X41165Y-14413D02*
X41303Y-14413D01*
X41303Y-14413D02*
X41303Y-14629D01*
X41303Y-14629D02*
X41696Y-14629D01*
X41696Y-14629D02*
X41696Y-14413D01*
X41696Y-14413D02*
X41834Y-14413D01*
X41834Y-14413D02*
X41834Y-13586D01*
X41834Y-13586D02*
X41696Y-13586D01*
X41696Y-13586D02*
X41696Y-13370D01*
X41696Y-13370D02*
X41303Y-13370D01*
X41303Y-13370D02*
X41303Y-13586D01*
X41303Y-13586D02*
X41165Y-13586D01*
X42578Y-14846D02*
G75*
G03X42578Y-14846I-78J0D01*
G74*
G01*
X42795Y-14413D02*
X42795Y-14629D01*
X42736Y-14629D02*
X42736Y-14413D01*
X42834Y-14413D02*
X42834Y-14629D01*
X42834Y-14629D02*
X42696Y-14629D01*
X42224Y-14413D02*
X42224Y-14629D01*
X42263Y-14629D02*
X42263Y-14413D01*
X42165Y-14413D02*
X42165Y-14629D01*
X42165Y-14629D02*
X42303Y-14629D01*
X42165Y-13586D02*
X42165Y-14413D01*
X42165Y-14413D02*
X42303Y-14413D01*
X42303Y-14413D02*
X42303Y-14629D01*
X42303Y-14629D02*
X42696Y-14629D01*
X42696Y-14629D02*
X42696Y-14413D01*
X42696Y-14413D02*
X42834Y-14413D01*
X42834Y-14413D02*
X42834Y-13586D01*
X42834Y-13586D02*
X42696Y-13586D01*
X42696Y-13586D02*
X42696Y-13370D01*
X42696Y-13370D02*
X42303Y-13370D01*
X42303Y-13370D02*
X42303Y-13586D01*
X42303Y-13586D02*
X42165Y-13586D01*
X45982Y-20000D02*
G75*
G03X45982Y-20000I-78J0D01*
G74*
G01*
X46336Y-20295D02*
X46120Y-20295D01*
X46120Y-20236D02*
X46336Y-20236D01*
X46336Y-20334D02*
X46120Y-20334D01*
X46120Y-20334D02*
X46120Y-20196D01*
X46336Y-19724D02*
X46120Y-19724D01*
X46120Y-19763D02*
X46336Y-19763D01*
X46336Y-19665D02*
X46120Y-19665D01*
X46120Y-19665D02*
X46120Y-19803D01*
X47163Y-19665D02*
X46336Y-19665D01*
X46336Y-19665D02*
X46336Y-19803D01*
X46336Y-19803D02*
X46120Y-19803D01*
X46120Y-19803D02*
X46120Y-20196D01*
X46120Y-20196D02*
X46336Y-20196D01*
X46336Y-20196D02*
X46336Y-20334D01*
X46336Y-20334D02*
X47163Y-20334D01*
X47163Y-20334D02*
X47163Y-20196D01*
X47163Y-20196D02*
X47379Y-20196D01*
X47379Y-20196D02*
X47379Y-19803D01*
X47379Y-19803D02*
X47163Y-19803D01*
X47163Y-19803D02*
X47163Y-19665D01*
X49175Y-20000D02*
G75*
G03X49175Y-20000I-78J0D01*
G74*
G01*
X48663Y-19704D02*
X48879Y-19704D01*
X48879Y-19763D02*
X48663Y-19763D01*
X48663Y-19665D02*
X48879Y-19665D01*
X48879Y-19665D02*
X48879Y-19803D01*
X48663Y-20275D02*
X48879Y-20275D01*
X48879Y-20236D02*
X48663Y-20236D01*
X48663Y-20334D02*
X48879Y-20334D01*
X48879Y-20334D02*
X48879Y-20196D01*
X47836Y-20334D02*
X48663Y-20334D01*
X48663Y-20334D02*
X48663Y-20196D01*
X48663Y-20196D02*
X48879Y-20196D01*
X48879Y-20196D02*
X48879Y-19803D01*
X48879Y-19803D02*
X48663Y-19803D01*
X48663Y-19803D02*
X48663Y-19665D01*
X48663Y-19665D02*
X47836Y-19665D01*
X47836Y-19665D02*
X47836Y-19803D01*
X47836Y-19803D02*
X47620Y-19803D01*
X47620Y-19803D02*
X47620Y-20196D01*
X47620Y-20196D02*
X47836Y-20196D01*
X47836Y-20196D02*
X47836Y-20334D01*
X22482Y-13500D02*
G75*
G03X22482Y-13500I-78J0D01*
G74*
G01*
X22836Y-13795D02*
X22620Y-13795D01*
X22620Y-13736D02*
X22836Y-13736D01*
X22836Y-13834D02*
X22620Y-13834D01*
X22620Y-13834D02*
X22620Y-13696D01*
X22836Y-13224D02*
X22620Y-13224D01*
X22620Y-13263D02*
X22836Y-13263D01*
X22836Y-13165D02*
X22620Y-13165D01*
X22620Y-13165D02*
X22620Y-13303D01*
X23663Y-13165D02*
X22836Y-13165D01*
X22836Y-13165D02*
X22836Y-13303D01*
X22836Y-13303D02*
X22620Y-13303D01*
X22620Y-13303D02*
X22620Y-13696D01*
X22620Y-13696D02*
X22836Y-13696D01*
X22836Y-13696D02*
X22836Y-13834D01*
X22836Y-13834D02*
X23663Y-13834D01*
X23663Y-13834D02*
X23663Y-13696D01*
X23663Y-13696D02*
X23879Y-13696D01*
X23879Y-13696D02*
X23879Y-13303D01*
X23879Y-13303D02*
X23663Y-13303D01*
X23663Y-13303D02*
X23663Y-13165D01*
X25925Y-13500D02*
G75*
G03X25925Y-13500I-78J0D01*
G74*
G01*
X25413Y-13204D02*
X25629Y-13204D01*
X25629Y-13263D02*
X25413Y-13263D01*
X25413Y-13165D02*
X25629Y-13165D01*
X25629Y-13165D02*
X25629Y-13303D01*
X25413Y-13775D02*
X25629Y-13775D01*
X25629Y-13736D02*
X25413Y-13736D01*
X25413Y-13834D02*
X25629Y-13834D01*
X25629Y-13834D02*
X25629Y-13696D01*
X24586Y-13834D02*
X25413Y-13834D01*
X25413Y-13834D02*
X25413Y-13696D01*
X25413Y-13696D02*
X25629Y-13696D01*
X25629Y-13696D02*
X25629Y-13303D01*
X25629Y-13303D02*
X25413Y-13303D01*
X25413Y-13303D02*
X25413Y-13165D01*
X25413Y-13165D02*
X24586Y-13165D01*
X24586Y-13165D02*
X24586Y-13303D01*
X24586Y-13303D02*
X24370Y-13303D01*
X24370Y-13303D02*
X24370Y-13696D01*
X24370Y-13696D02*
X24586Y-13696D01*
X24586Y-13696D02*
X24586Y-13834D01*
X50610Y-19744D02*
X50610Y-20255D01*
X50610Y-20255D02*
X49389Y-20255D01*
X49389Y-20255D02*
X49389Y-19744D01*
X49389Y-19744D02*
X50610Y-19744D01*
X50610Y-19744D02*
X50610Y-19744D01*
X39730Y-16814D02*
X39730Y-17325D01*
X39730Y-17325D02*
X38509Y-17325D01*
X38509Y-17325D02*
X38509Y-16814D01*
X38509Y-16814D02*
X39730Y-16814D01*
X39730Y-16814D02*
X39730Y-16814D01*
X40889Y-17255D02*
X40889Y-16744D01*
X40889Y-16744D02*
X42110Y-16744D01*
X42110Y-16744D02*
X42110Y-17255D01*
X42110Y-17255D02*
X40889Y-17255D01*
X40889Y-17255D02*
X40889Y-17255D01*
X39939Y-20115D02*
X39939Y-19604D01*
X39939Y-19604D02*
X41160Y-19604D01*
X41160Y-19604D02*
X41160Y-20115D01*
X41160Y-20115D02*
X39939Y-20115D01*
X39939Y-20115D02*
X39939Y-20115D01*
X37680Y-19624D02*
X37680Y-20135D01*
X37680Y-20135D02*
X36459Y-20135D01*
X36459Y-20135D02*
X36459Y-19624D01*
X36459Y-19624D02*
X37680Y-19624D01*
X37680Y-19624D02*
X37680Y-19624D01*
X49103Y-10969D02*
X49615Y-10969D01*
X49615Y-10969D02*
X49615Y-12190D01*
X49615Y-12190D02*
X49103Y-12190D01*
X49103Y-12190D02*
X49103Y-10969D01*
X49103Y-10969D02*
X49103Y-10969D01*
X49903Y-10969D02*
X50415Y-10969D01*
X50415Y-10969D02*
X50415Y-12190D01*
X50415Y-12190D02*
X49903Y-12190D01*
X49903Y-12190D02*
X49903Y-10969D01*
X49903Y-10969D02*
X49903Y-10969D01*
X30389Y-19065D02*
X30389Y-18554D01*
X30389Y-18554D02*
X31610Y-18554D01*
X31610Y-18554D02*
X31610Y-19065D01*
X31610Y-19065D02*
X30389Y-19065D01*
X30389Y-19065D02*
X30389Y-19065D01*
X30429Y-18175D02*
X30429Y-17664D01*
X30429Y-17664D02*
X31650Y-17664D01*
X31650Y-17664D02*
X31650Y-18175D01*
X31650Y-18175D02*
X30429Y-18175D01*
X30429Y-18175D02*
X30429Y-18175D01*
X57068Y-22660D02*
X56556Y-22660D01*
X56556Y-22660D02*
X56556Y-21439D01*
X56556Y-21439D02*
X57068Y-21439D01*
X57068Y-21439D02*
X57068Y-22660D01*
X57068Y-22660D02*
X57068Y-22660D01*
X37009Y-17335D02*
X37009Y-16824D01*
X37009Y-16824D02*
X38230Y-16824D01*
X38230Y-16824D02*
X38230Y-17335D01*
X38230Y-17335D02*
X37009Y-17335D01*
X37009Y-17335D02*
X37009Y-17335D01*
X35499Y-17355D02*
X35499Y-16844D01*
X35499Y-16844D02*
X36720Y-16844D01*
X36720Y-16844D02*
X36720Y-17355D01*
X36720Y-17355D02*
X35499Y-17355D01*
X35499Y-17355D02*
X35499Y-17355D01*
X49635Y-13610D02*
X49124Y-13610D01*
X49124Y-13610D02*
X49124Y-12389D01*
X49124Y-12389D02*
X49635Y-12389D01*
X49635Y-12389D02*
X49635Y-13610D01*
X49635Y-13610D02*
X49635Y-13610D01*
X50415Y-13610D02*
X49903Y-13610D01*
X49903Y-13610D02*
X49903Y-12389D01*
X49903Y-12389D02*
X50415Y-12389D01*
X50415Y-12389D02*
X50415Y-13610D01*
X50415Y-13610D02*
X50415Y-13610D01*
X20505Y-35110D02*
X19994Y-35110D01*
X19994Y-35110D02*
X19994Y-33889D01*
X19994Y-33889D02*
X20505Y-33889D01*
X20505Y-33889D02*
X20505Y-35110D01*
X20505Y-35110D02*
X20505Y-35110D01*
X17751Y-30710D02*
X17239Y-30710D01*
X17239Y-30710D02*
X17239Y-29489D01*
X17239Y-29489D02*
X17751Y-29489D01*
X17751Y-29489D02*
X17751Y-30710D01*
X17751Y-30710D02*
X17751Y-30710D01*
X18005Y-26610D02*
X17494Y-26610D01*
X17494Y-26610D02*
X17494Y-25389D01*
X17494Y-25389D02*
X18005Y-25389D01*
X18005Y-25389D02*
X18005Y-26610D01*
X18005Y-26610D02*
X18005Y-26610D01*
X46065Y-10425D02*
X46084Y-10443D01*
X46140Y-10462D01*
X46178Y-10462D01*
X46234Y-10443D01*
X46271Y-10406D01*
X46290Y-10368D01*
X46309Y-10293D01*
X46309Y-10237D01*
X46290Y-10162D01*
X46271Y-10125D01*
X46234Y-10087D01*
X46178Y-10068D01*
X46140Y-10068D01*
X46084Y-10087D01*
X46065Y-10106D01*
X45934Y-10068D02*
X45671Y-10068D01*
X45840Y-10462D01*
X44081Y-10416D02*
X44100Y-10434D01*
X44156Y-10453D01*
X44193Y-10453D01*
X44250Y-10434D01*
X44287Y-10397D01*
X44306Y-10359D01*
X44325Y-10284D01*
X44325Y-10228D01*
X44306Y-10153D01*
X44287Y-10116D01*
X44250Y-10078D01*
X44193Y-10059D01*
X44156Y-10059D01*
X44100Y-10078D01*
X44081Y-10097D01*
X43893Y-10453D02*
X43818Y-10453D01*
X43781Y-10434D01*
X43762Y-10416D01*
X43725Y-10359D01*
X43706Y-10284D01*
X43706Y-10134D01*
X43725Y-10097D01*
X43743Y-10078D01*
X43781Y-10059D01*
X43856Y-10059D01*
X43893Y-10078D01*
X43912Y-10097D01*
X43931Y-10134D01*
X43931Y-10228D01*
X43912Y-10266D01*
X43893Y-10284D01*
X43856Y-10303D01*
X43781Y-10303D01*
X43743Y-10284D01*
X43725Y-10266D01*
X43706Y-10228D01*
X24190Y-10298D02*
X24208Y-10316D01*
X24265Y-10335D01*
X24302Y-10335D01*
X24358Y-10316D01*
X24396Y-10279D01*
X24415Y-10241D01*
X24433Y-10166D01*
X24433Y-10110D01*
X24415Y-10035D01*
X24396Y-9998D01*
X24358Y-9960D01*
X24302Y-9941D01*
X24265Y-9941D01*
X24208Y-9960D01*
X24190Y-9979D01*
X24040Y-9979D02*
X24021Y-9960D01*
X23983Y-9941D01*
X23890Y-9941D01*
X23852Y-9960D01*
X23833Y-9979D01*
X23815Y-10016D01*
X23815Y-10054D01*
X23833Y-10110D01*
X24058Y-10335D01*
X23815Y-10335D01*
X23440Y-10335D02*
X23665Y-10335D01*
X23552Y-10335D02*
X23552Y-9941D01*
X23590Y-9998D01*
X23627Y-10035D01*
X23665Y-10054D01*
X26001Y-10298D02*
X26019Y-10316D01*
X26076Y-10335D01*
X26113Y-10335D01*
X26169Y-10316D01*
X26207Y-10279D01*
X26226Y-10241D01*
X26244Y-10166D01*
X26244Y-10110D01*
X26226Y-10035D01*
X26207Y-9998D01*
X26169Y-9960D01*
X26113Y-9941D01*
X26076Y-9941D01*
X26019Y-9960D01*
X26001Y-9979D01*
X25851Y-9979D02*
X25832Y-9960D01*
X25794Y-9941D01*
X25701Y-9941D01*
X25663Y-9960D01*
X25644Y-9979D01*
X25626Y-10016D01*
X25626Y-10054D01*
X25644Y-10110D01*
X25869Y-10335D01*
X25626Y-10335D01*
X25476Y-9979D02*
X25457Y-9960D01*
X25419Y-9941D01*
X25326Y-9941D01*
X25288Y-9960D01*
X25269Y-9979D01*
X25251Y-10016D01*
X25251Y-10054D01*
X25269Y-10110D01*
X25494Y-10335D01*
X25251Y-10335D01*
X27733Y-10298D02*
X27752Y-10316D01*
X27808Y-10335D01*
X27845Y-10335D01*
X27902Y-10316D01*
X27939Y-10279D01*
X27958Y-10241D01*
X27977Y-10166D01*
X27977Y-10110D01*
X27958Y-10035D01*
X27939Y-9998D01*
X27902Y-9960D01*
X27845Y-9941D01*
X27808Y-9941D01*
X27752Y-9960D01*
X27733Y-9979D01*
X27583Y-9979D02*
X27564Y-9960D01*
X27527Y-9941D01*
X27433Y-9941D01*
X27395Y-9960D01*
X27377Y-9979D01*
X27358Y-10016D01*
X27358Y-10054D01*
X27377Y-10110D01*
X27602Y-10335D01*
X27358Y-10335D01*
X27227Y-9941D02*
X26983Y-9941D01*
X27114Y-10091D01*
X27058Y-10091D01*
X27020Y-10110D01*
X27002Y-10129D01*
X26983Y-10166D01*
X26983Y-10260D01*
X27002Y-10298D01*
X27020Y-10316D01*
X27058Y-10335D01*
X27170Y-10335D01*
X27208Y-10316D01*
X27227Y-10298D01*
X50688Y-18348D02*
X50669Y-18310D01*
X50631Y-18273D01*
X50575Y-18217D01*
X50556Y-18179D01*
X50556Y-18142D01*
X50650Y-18160D02*
X50631Y-18123D01*
X50594Y-18085D01*
X50519Y-18067D01*
X50388Y-18067D01*
X50313Y-18085D01*
X50275Y-18123D01*
X50256Y-18160D01*
X50256Y-18235D01*
X50275Y-18273D01*
X50313Y-18310D01*
X50388Y-18329D01*
X50519Y-18329D01*
X50594Y-18310D01*
X50631Y-18273D01*
X50650Y-18235D01*
X50650Y-18160D01*
X50256Y-18667D02*
X50256Y-18592D01*
X50275Y-18554D01*
X50294Y-18535D01*
X50350Y-18498D01*
X50425Y-18479D01*
X50575Y-18479D01*
X50613Y-18498D01*
X50631Y-18517D01*
X50650Y-18554D01*
X50650Y-18629D01*
X50631Y-18667D01*
X50613Y-18685D01*
X50575Y-18704D01*
X50481Y-18704D01*
X50444Y-18685D01*
X50425Y-18667D01*
X50406Y-18629D01*
X50406Y-18554D01*
X50425Y-18517D01*
X50444Y-18498D01*
X50481Y-18479D01*
X29861Y-12442D02*
X29842Y-12405D01*
X29805Y-12367D01*
X29748Y-12311D01*
X29730Y-12274D01*
X29730Y-12236D01*
X29823Y-12255D02*
X29805Y-12217D01*
X29767Y-12180D01*
X29692Y-12161D01*
X29561Y-12161D01*
X29486Y-12180D01*
X29448Y-12217D01*
X29430Y-12255D01*
X29430Y-12330D01*
X29448Y-12367D01*
X29486Y-12405D01*
X29561Y-12424D01*
X29692Y-12424D01*
X29767Y-12405D01*
X29805Y-12367D01*
X29823Y-12330D01*
X29823Y-12255D01*
X29823Y-12611D02*
X29823Y-12686D01*
X29805Y-12724D01*
X29786Y-12742D01*
X29730Y-12780D01*
X29655Y-12799D01*
X29505Y-12799D01*
X29467Y-12780D01*
X29448Y-12761D01*
X29430Y-12724D01*
X29430Y-12649D01*
X29448Y-12611D01*
X29467Y-12592D01*
X29505Y-12574D01*
X29598Y-12574D01*
X29636Y-12592D01*
X29655Y-12611D01*
X29673Y-12649D01*
X29673Y-12724D01*
X29655Y-12761D01*
X29636Y-12780D01*
X29598Y-12799D01*
X55142Y-20926D02*
X55142Y-21244D01*
X55123Y-21282D01*
X55104Y-21301D01*
X55067Y-21319D01*
X54992Y-21319D01*
X54955Y-21301D01*
X54936Y-21282D01*
X54917Y-21244D01*
X54917Y-20926D01*
X54748Y-20963D02*
X54730Y-20944D01*
X54692Y-20926D01*
X54598Y-20926D01*
X54561Y-20944D01*
X54542Y-20963D01*
X54523Y-21001D01*
X54523Y-21038D01*
X54542Y-21094D01*
X54767Y-21319D01*
X54523Y-21319D01*
X37776Y-13449D02*
X37382Y-13449D01*
X37382Y-13543D01*
X37401Y-13599D01*
X37439Y-13637D01*
X37476Y-13655D01*
X37551Y-13674D01*
X37607Y-13674D01*
X37682Y-13655D01*
X37720Y-13637D01*
X37757Y-13599D01*
X37776Y-13543D01*
X37776Y-13449D01*
X37551Y-13899D02*
X37532Y-13862D01*
X37514Y-13843D01*
X37476Y-13824D01*
X37457Y-13824D01*
X37420Y-13843D01*
X37401Y-13862D01*
X37382Y-13899D01*
X37382Y-13974D01*
X37401Y-14011D01*
X37420Y-14030D01*
X37457Y-14049D01*
X37476Y-14049D01*
X37514Y-14030D01*
X37532Y-14011D01*
X37551Y-13974D01*
X37551Y-13899D01*
X37570Y-13862D01*
X37589Y-13843D01*
X37626Y-13824D01*
X37701Y-13824D01*
X37739Y-13843D01*
X37757Y-13862D01*
X37776Y-13899D01*
X37776Y-13974D01*
X37757Y-14011D01*
X37739Y-14030D01*
X37701Y-14049D01*
X37626Y-14049D01*
X37589Y-14030D01*
X37570Y-14011D01*
X37551Y-13974D01*
X37146Y-13449D02*
X36752Y-13449D01*
X36752Y-13543D01*
X36771Y-13599D01*
X36809Y-13637D01*
X36846Y-13655D01*
X36921Y-13674D01*
X36977Y-13674D01*
X37052Y-13655D01*
X37090Y-13637D01*
X37127Y-13599D01*
X37146Y-13543D01*
X37146Y-13449D01*
X37146Y-13862D02*
X37146Y-13937D01*
X37127Y-13974D01*
X37109Y-13993D01*
X37052Y-14030D01*
X36977Y-14049D01*
X36827Y-14049D01*
X36790Y-14030D01*
X36771Y-14011D01*
X36752Y-13974D01*
X36752Y-13899D01*
X36771Y-13862D01*
X36790Y-13843D01*
X36827Y-13824D01*
X36921Y-13824D01*
X36959Y-13843D01*
X36977Y-13862D01*
X36996Y-13899D01*
X36996Y-13974D01*
X36977Y-14011D01*
X36959Y-14030D01*
X36921Y-14049D01*
X38367Y-13458D02*
X37973Y-13458D01*
X37973Y-13552D01*
X37992Y-13608D01*
X38029Y-13646D01*
X38067Y-13665D01*
X38142Y-13683D01*
X38198Y-13683D01*
X38273Y-13665D01*
X38310Y-13646D01*
X38348Y-13608D01*
X38367Y-13552D01*
X38367Y-13458D01*
X38367Y-14058D02*
X38367Y-13833D01*
X38367Y-13946D02*
X37973Y-13946D01*
X38029Y-13908D01*
X38067Y-13871D01*
X38085Y-13833D01*
X37973Y-14302D02*
X37973Y-14340D01*
X37992Y-14377D01*
X38010Y-14396D01*
X38048Y-14415D01*
X38123Y-14433D01*
X38217Y-14433D01*
X38292Y-14415D01*
X38329Y-14396D01*
X38348Y-14377D01*
X38367Y-14340D01*
X38367Y-14302D01*
X38348Y-14265D01*
X38329Y-14246D01*
X38292Y-14227D01*
X38217Y-14208D01*
X38123Y-14208D01*
X38048Y-14227D01*
X38010Y-14246D01*
X37992Y-14265D01*
X37973Y-14302D01*
X38957Y-13458D02*
X38563Y-13458D01*
X38563Y-13552D01*
X38582Y-13608D01*
X38620Y-13646D01*
X38657Y-13665D01*
X38732Y-13683D01*
X38788Y-13683D01*
X38863Y-13665D01*
X38901Y-13646D01*
X38938Y-13608D01*
X38957Y-13552D01*
X38957Y-13458D01*
X38957Y-14058D02*
X38957Y-13833D01*
X38957Y-13946D02*
X38563Y-13946D01*
X38620Y-13908D01*
X38657Y-13871D01*
X38676Y-13833D01*
X38957Y-14433D02*
X38957Y-14208D01*
X38957Y-14321D02*
X38563Y-14321D01*
X38620Y-14283D01*
X38657Y-14246D01*
X38676Y-14208D01*
X45989Y-20650D02*
X45989Y-20256D01*
X45896Y-20256D01*
X45839Y-20275D01*
X45802Y-20313D01*
X45783Y-20350D01*
X45764Y-20425D01*
X45764Y-20481D01*
X45783Y-20556D01*
X45802Y-20594D01*
X45839Y-20631D01*
X45896Y-20650D01*
X45989Y-20650D01*
X45389Y-20650D02*
X45614Y-20650D01*
X45502Y-20650D02*
X45502Y-20256D01*
X45539Y-20313D01*
X45577Y-20350D01*
X45614Y-20369D01*
X45258Y-20256D02*
X45014Y-20256D01*
X45146Y-20406D01*
X45089Y-20406D01*
X45052Y-20425D01*
X45033Y-20444D01*
X45014Y-20481D01*
X45014Y-20575D01*
X45033Y-20613D01*
X45052Y-20631D01*
X45089Y-20650D01*
X45202Y-20650D01*
X45239Y-20631D01*
X45258Y-20613D01*
X48728Y-20808D02*
X48728Y-20414D01*
X48634Y-20414D01*
X48578Y-20433D01*
X48540Y-20470D01*
X48521Y-20508D01*
X48503Y-20583D01*
X48503Y-20639D01*
X48521Y-20714D01*
X48540Y-20751D01*
X48578Y-20789D01*
X48634Y-20808D01*
X48728Y-20808D01*
X48128Y-20808D02*
X48353Y-20808D01*
X48240Y-20808D02*
X48240Y-20414D01*
X48278Y-20470D01*
X48315Y-20508D01*
X48353Y-20526D01*
X47790Y-20545D02*
X47790Y-20808D01*
X47884Y-20395D02*
X47978Y-20676D01*
X47734Y-20676D01*
X23548Y-14390D02*
X23548Y-13997D01*
X23455Y-13997D01*
X23398Y-14015D01*
X23361Y-14053D01*
X23342Y-14090D01*
X23323Y-14165D01*
X23323Y-14221D01*
X23342Y-14296D01*
X23361Y-14334D01*
X23398Y-14371D01*
X23455Y-14390D01*
X23548Y-14390D01*
X22949Y-14390D02*
X23173Y-14390D01*
X23061Y-14390D02*
X23061Y-13997D01*
X23098Y-14053D01*
X23136Y-14090D01*
X23173Y-14109D01*
X22611Y-13997D02*
X22686Y-13997D01*
X22724Y-14015D01*
X22742Y-14034D01*
X22780Y-14090D01*
X22799Y-14165D01*
X22799Y-14315D01*
X22780Y-14353D01*
X22761Y-14371D01*
X22724Y-14390D01*
X22649Y-14390D01*
X22611Y-14371D01*
X22592Y-14353D01*
X22574Y-14315D01*
X22574Y-14221D01*
X22592Y-14184D01*
X22611Y-14165D01*
X22649Y-14146D01*
X22724Y-14146D01*
X22761Y-14165D01*
X22780Y-14184D01*
X22799Y-14221D01*
X25478Y-14308D02*
X25478Y-13914D01*
X25384Y-13914D01*
X25328Y-13933D01*
X25290Y-13970D01*
X25271Y-14008D01*
X25253Y-14083D01*
X25253Y-14139D01*
X25271Y-14214D01*
X25290Y-14251D01*
X25328Y-14289D01*
X25384Y-14308D01*
X25478Y-14308D01*
X24878Y-14308D02*
X25103Y-14308D01*
X24990Y-14308D02*
X24990Y-13914D01*
X25028Y-13970D01*
X25065Y-14008D01*
X25103Y-14026D01*
X24653Y-14083D02*
X24690Y-14064D01*
X24709Y-14045D01*
X24728Y-14008D01*
X24728Y-13989D01*
X24709Y-13951D01*
X24690Y-13933D01*
X24653Y-13914D01*
X24578Y-13914D01*
X24540Y-13933D01*
X24521Y-13951D01*
X24503Y-13989D01*
X24503Y-14008D01*
X24521Y-14045D01*
X24540Y-14064D01*
X24578Y-14083D01*
X24653Y-14083D01*
X24690Y-14101D01*
X24709Y-14120D01*
X24728Y-14158D01*
X24728Y-14233D01*
X24709Y-14270D01*
X24690Y-14289D01*
X24653Y-14308D01*
X24578Y-14308D01*
X24540Y-14289D01*
X24521Y-14270D01*
X24503Y-14233D01*
X24503Y-14158D01*
X24521Y-14120D01*
X24540Y-14101D01*
X24578Y-14083D01*
X50253Y-20849D02*
X50271Y-20868D01*
X50328Y-20886D01*
X50365Y-20886D01*
X50421Y-20868D01*
X50459Y-20830D01*
X50478Y-20793D01*
X50496Y-20718D01*
X50496Y-20661D01*
X50478Y-20586D01*
X50459Y-20549D01*
X50421Y-20511D01*
X50365Y-20493D01*
X50328Y-20493D01*
X50271Y-20511D01*
X50253Y-20530D01*
X50103Y-20530D02*
X50084Y-20511D01*
X50046Y-20493D01*
X49953Y-20493D01*
X49915Y-20511D01*
X49896Y-20530D01*
X49878Y-20568D01*
X49878Y-20605D01*
X49896Y-20661D01*
X50121Y-20886D01*
X49878Y-20886D01*
X49540Y-20493D02*
X49615Y-20493D01*
X49653Y-20511D01*
X49671Y-20530D01*
X49709Y-20586D01*
X49728Y-20661D01*
X49728Y-20811D01*
X49709Y-20849D01*
X49690Y-20868D01*
X49653Y-20886D01*
X49578Y-20886D01*
X49540Y-20868D01*
X49521Y-20849D01*
X49503Y-20811D01*
X49503Y-20718D01*
X49521Y-20680D01*
X49540Y-20661D01*
X49578Y-20643D01*
X49653Y-20643D01*
X49690Y-20661D01*
X49709Y-20680D01*
X49728Y-20718D01*
X39347Y-15414D02*
X39478Y-15226D01*
X39572Y-15414D02*
X39572Y-15020D01*
X39422Y-15020D01*
X39385Y-15039D01*
X39366Y-15058D01*
X39347Y-15095D01*
X39347Y-15151D01*
X39366Y-15189D01*
X39385Y-15208D01*
X39422Y-15226D01*
X39572Y-15226D01*
X39197Y-15058D02*
X39178Y-15039D01*
X39141Y-15020D01*
X39047Y-15020D01*
X39010Y-15039D01*
X38991Y-15058D01*
X38972Y-15095D01*
X38972Y-15133D01*
X38991Y-15189D01*
X39216Y-15414D01*
X38972Y-15414D01*
X38841Y-15020D02*
X38578Y-15020D01*
X38747Y-15414D01*
X42969Y-17225D02*
X43100Y-17037D01*
X43194Y-17225D02*
X43194Y-16831D01*
X43044Y-16831D01*
X43007Y-16850D01*
X42988Y-16869D01*
X42969Y-16906D01*
X42969Y-16962D01*
X42988Y-17000D01*
X43007Y-17019D01*
X43044Y-17037D01*
X43194Y-17037D01*
X42819Y-16869D02*
X42800Y-16850D01*
X42763Y-16831D01*
X42669Y-16831D01*
X42632Y-16850D01*
X42613Y-16869D01*
X42594Y-16906D01*
X42594Y-16944D01*
X42613Y-17000D01*
X42838Y-17225D01*
X42594Y-17225D01*
X42257Y-16831D02*
X42332Y-16831D01*
X42369Y-16850D01*
X42388Y-16869D01*
X42425Y-16925D01*
X42444Y-17000D01*
X42444Y-17150D01*
X42425Y-17187D01*
X42407Y-17206D01*
X42369Y-17225D01*
X42294Y-17225D01*
X42257Y-17206D01*
X42238Y-17187D01*
X42219Y-17150D01*
X42219Y-17056D01*
X42238Y-17019D01*
X42257Y-17000D01*
X42294Y-16981D01*
X42369Y-16981D01*
X42407Y-17000D01*
X42425Y-17019D01*
X42444Y-17056D01*
X40803Y-20563D02*
X40934Y-20375D01*
X41028Y-20563D02*
X41028Y-20169D01*
X40878Y-20169D01*
X40840Y-20188D01*
X40821Y-20206D01*
X40803Y-20244D01*
X40803Y-20300D01*
X40821Y-20338D01*
X40840Y-20356D01*
X40878Y-20375D01*
X41028Y-20375D01*
X40653Y-20206D02*
X40634Y-20188D01*
X40596Y-20169D01*
X40503Y-20169D01*
X40465Y-20188D01*
X40446Y-20206D01*
X40428Y-20244D01*
X40428Y-20281D01*
X40446Y-20338D01*
X40671Y-20563D01*
X40428Y-20563D01*
X40071Y-20169D02*
X40259Y-20169D01*
X40278Y-20356D01*
X40259Y-20338D01*
X40221Y-20319D01*
X40128Y-20319D01*
X40090Y-20338D01*
X40071Y-20356D01*
X40053Y-20394D01*
X40053Y-20488D01*
X40071Y-20525D01*
X40090Y-20544D01*
X40128Y-20563D01*
X40221Y-20563D01*
X40259Y-20544D01*
X40278Y-20525D01*
X37323Y-19533D02*
X37454Y-19345D01*
X37548Y-19533D02*
X37548Y-19139D01*
X37398Y-19139D01*
X37360Y-19158D01*
X37341Y-19176D01*
X37323Y-19214D01*
X37323Y-19270D01*
X37341Y-19308D01*
X37360Y-19326D01*
X37398Y-19345D01*
X37548Y-19345D01*
X37173Y-19176D02*
X37154Y-19158D01*
X37116Y-19139D01*
X37023Y-19139D01*
X36985Y-19158D01*
X36966Y-19176D01*
X36948Y-19214D01*
X36948Y-19251D01*
X36966Y-19308D01*
X37191Y-19533D01*
X36948Y-19533D01*
X36610Y-19270D02*
X36610Y-19533D01*
X36704Y-19120D02*
X36798Y-19401D01*
X36554Y-19401D01*
X48957Y-10416D02*
X48770Y-10284D01*
X48957Y-10191D02*
X48563Y-10191D01*
X48563Y-10341D01*
X48582Y-10378D01*
X48601Y-10397D01*
X48638Y-10416D01*
X48695Y-10416D01*
X48732Y-10397D01*
X48751Y-10378D01*
X48770Y-10341D01*
X48770Y-10191D01*
X48957Y-10791D02*
X48957Y-10566D01*
X48957Y-10678D02*
X48563Y-10678D01*
X48620Y-10641D01*
X48657Y-10603D01*
X48676Y-10566D01*
X48563Y-11147D02*
X48563Y-10959D01*
X48751Y-10941D01*
X48732Y-10959D01*
X48713Y-10997D01*
X48713Y-11091D01*
X48732Y-11128D01*
X48751Y-11147D01*
X48788Y-11166D01*
X48882Y-11166D01*
X48920Y-11147D01*
X48938Y-11128D01*
X48957Y-11091D01*
X48957Y-10997D01*
X48938Y-10959D01*
X48920Y-10941D01*
X51004Y-11242D02*
X50817Y-11111D01*
X51004Y-11017D02*
X50611Y-11017D01*
X50611Y-11167D01*
X50629Y-11205D01*
X50648Y-11224D01*
X50686Y-11242D01*
X50742Y-11242D01*
X50779Y-11224D01*
X50798Y-11205D01*
X50817Y-11167D01*
X50817Y-11017D01*
X51004Y-11617D02*
X51004Y-11392D01*
X51004Y-11505D02*
X50611Y-11505D01*
X50667Y-11467D01*
X50704Y-11430D01*
X50723Y-11392D01*
X50648Y-11767D02*
X50629Y-11786D01*
X50611Y-11824D01*
X50611Y-11917D01*
X50629Y-11955D01*
X50648Y-11974D01*
X50686Y-11992D01*
X50723Y-11992D01*
X50779Y-11974D01*
X51004Y-11749D01*
X51004Y-11992D01*
X31065Y-19513D02*
X31196Y-19325D01*
X31290Y-19513D02*
X31290Y-19119D01*
X31140Y-19119D01*
X31103Y-19138D01*
X31084Y-19156D01*
X31065Y-19194D01*
X31065Y-19250D01*
X31084Y-19288D01*
X31103Y-19306D01*
X31140Y-19325D01*
X31290Y-19325D01*
X30728Y-19119D02*
X30803Y-19119D01*
X30840Y-19138D01*
X30859Y-19156D01*
X30896Y-19213D01*
X30915Y-19288D01*
X30915Y-19438D01*
X30896Y-19475D01*
X30878Y-19494D01*
X30840Y-19513D01*
X30765Y-19513D01*
X30728Y-19494D01*
X30709Y-19475D01*
X30690Y-19438D01*
X30690Y-19344D01*
X30709Y-19306D01*
X30728Y-19288D01*
X30765Y-19269D01*
X30840Y-19269D01*
X30878Y-19288D01*
X30896Y-19306D01*
X30915Y-19344D01*
X31105Y-18623D02*
X31236Y-18435D01*
X31330Y-18623D02*
X31330Y-18229D01*
X31180Y-18229D01*
X31143Y-18248D01*
X31124Y-18266D01*
X31105Y-18304D01*
X31105Y-18360D01*
X31124Y-18398D01*
X31143Y-18416D01*
X31180Y-18435D01*
X31330Y-18435D01*
X30955Y-18266D02*
X30936Y-18248D01*
X30899Y-18229D01*
X30805Y-18229D01*
X30768Y-18248D01*
X30749Y-18266D01*
X30730Y-18304D01*
X30730Y-18341D01*
X30749Y-18398D01*
X30974Y-18623D01*
X30730Y-18623D01*
X57542Y-21794D02*
X57560Y-21775D01*
X57579Y-21719D01*
X57579Y-21681D01*
X57560Y-21625D01*
X57523Y-21587D01*
X57485Y-21569D01*
X57410Y-21550D01*
X57354Y-21550D01*
X57279Y-21569D01*
X57242Y-21587D01*
X57204Y-21625D01*
X57185Y-21681D01*
X57185Y-21719D01*
X57204Y-21775D01*
X57223Y-21794D01*
X57223Y-21944D02*
X57204Y-21962D01*
X57185Y-22000D01*
X57185Y-22094D01*
X57204Y-22131D01*
X57223Y-22150D01*
X57260Y-22169D01*
X57298Y-22169D01*
X57354Y-22150D01*
X57579Y-21925D01*
X57579Y-22169D01*
X57185Y-22412D02*
X57185Y-22450D01*
X57204Y-22487D01*
X57223Y-22506D01*
X57260Y-22525D01*
X57335Y-22544D01*
X57429Y-22544D01*
X57504Y-22525D01*
X57542Y-22506D01*
X57560Y-22487D01*
X57579Y-22450D01*
X57579Y-22412D01*
X57560Y-22375D01*
X57542Y-22356D01*
X57504Y-22337D01*
X57429Y-22319D01*
X57335Y-22319D01*
X57260Y-22337D01*
X57223Y-22356D01*
X57204Y-22375D01*
X57185Y-22412D01*
X37300Y-15337D02*
X37319Y-15356D01*
X37375Y-15374D01*
X37412Y-15374D01*
X37469Y-15356D01*
X37506Y-15318D01*
X37525Y-15281D01*
X37544Y-15206D01*
X37544Y-15149D01*
X37525Y-15074D01*
X37506Y-15037D01*
X37469Y-15000D01*
X37412Y-14981D01*
X37375Y-14981D01*
X37319Y-15000D01*
X37300Y-15018D01*
X36925Y-15374D02*
X37150Y-15374D01*
X37037Y-15374D02*
X37037Y-14981D01*
X37075Y-15037D01*
X37112Y-15074D01*
X37150Y-15093D01*
X36700Y-15149D02*
X36737Y-15131D01*
X36756Y-15112D01*
X36775Y-15074D01*
X36775Y-15056D01*
X36756Y-15018D01*
X36737Y-15000D01*
X36700Y-14981D01*
X36625Y-14981D01*
X36587Y-15000D01*
X36569Y-15018D01*
X36550Y-15056D01*
X36550Y-15074D01*
X36569Y-15112D01*
X36587Y-15131D01*
X36625Y-15149D01*
X36700Y-15149D01*
X36737Y-15168D01*
X36756Y-15187D01*
X36775Y-15224D01*
X36775Y-15299D01*
X36756Y-15337D01*
X36737Y-15356D01*
X36700Y-15374D01*
X36625Y-15374D01*
X36587Y-15356D01*
X36569Y-15337D01*
X36550Y-15299D01*
X36550Y-15224D01*
X36569Y-15187D01*
X36587Y-15168D01*
X36625Y-15149D01*
X35961Y-15337D02*
X35980Y-15356D01*
X36036Y-15374D01*
X36074Y-15374D01*
X36130Y-15356D01*
X36167Y-15318D01*
X36186Y-15281D01*
X36205Y-15206D01*
X36205Y-15149D01*
X36186Y-15074D01*
X36167Y-15037D01*
X36130Y-15000D01*
X36074Y-14981D01*
X36036Y-14981D01*
X35980Y-15000D01*
X35961Y-15018D01*
X35586Y-15374D02*
X35811Y-15374D01*
X35699Y-15374D02*
X35699Y-14981D01*
X35736Y-15037D01*
X35774Y-15074D01*
X35811Y-15093D01*
X35230Y-14981D02*
X35418Y-14981D01*
X35436Y-15168D01*
X35418Y-15149D01*
X35380Y-15131D01*
X35286Y-15131D01*
X35249Y-15149D01*
X35230Y-15168D01*
X35211Y-15206D01*
X35211Y-15299D01*
X35230Y-15337D01*
X35249Y-15356D01*
X35286Y-15374D01*
X35380Y-15374D01*
X35418Y-15356D01*
X35436Y-15337D01*
X48920Y-13595D02*
X48938Y-13577D01*
X48957Y-13520D01*
X48957Y-13483D01*
X48938Y-13427D01*
X48901Y-13389D01*
X48863Y-13370D01*
X48788Y-13352D01*
X48732Y-13352D01*
X48657Y-13370D01*
X48620Y-13389D01*
X48582Y-13427D01*
X48563Y-13483D01*
X48563Y-13520D01*
X48582Y-13577D01*
X48601Y-13595D01*
X48732Y-13820D02*
X48713Y-13783D01*
X48695Y-13764D01*
X48657Y-13745D01*
X48638Y-13745D01*
X48601Y-13764D01*
X48582Y-13783D01*
X48563Y-13820D01*
X48563Y-13895D01*
X48582Y-13933D01*
X48601Y-13952D01*
X48638Y-13970D01*
X48657Y-13970D01*
X48695Y-13952D01*
X48713Y-13933D01*
X48732Y-13895D01*
X48732Y-13820D01*
X48751Y-13783D01*
X48770Y-13764D01*
X48807Y-13745D01*
X48882Y-13745D01*
X48920Y-13764D01*
X48938Y-13783D01*
X48957Y-13820D01*
X48957Y-13895D01*
X48938Y-13933D01*
X48920Y-13952D01*
X48882Y-13970D01*
X48807Y-13970D01*
X48770Y-13952D01*
X48751Y-13933D01*
X48732Y-13895D01*
X50967Y-12926D02*
X50986Y-12907D01*
X51004Y-12851D01*
X51004Y-12814D01*
X50986Y-12757D01*
X50948Y-12720D01*
X50911Y-12701D01*
X50836Y-12682D01*
X50779Y-12682D01*
X50704Y-12701D01*
X50667Y-12720D01*
X50629Y-12757D01*
X50611Y-12814D01*
X50611Y-12851D01*
X50629Y-12907D01*
X50648Y-12926D01*
X50611Y-13263D02*
X50611Y-13188D01*
X50629Y-13151D01*
X50648Y-13132D01*
X50704Y-13095D01*
X50779Y-13076D01*
X50929Y-13076D01*
X50967Y-13095D01*
X50986Y-13113D01*
X51004Y-13151D01*
X51004Y-13226D01*
X50986Y-13263D01*
X50967Y-13282D01*
X50929Y-13301D01*
X50836Y-13301D01*
X50798Y-13282D01*
X50779Y-13263D01*
X50761Y-13226D01*
X50761Y-13151D01*
X50779Y-13113D01*
X50798Y-13095D01*
X50836Y-13076D01*
X20416Y-33202D02*
X20434Y-33183D01*
X20453Y-33127D01*
X20453Y-33089D01*
X20434Y-33033D01*
X20397Y-32995D01*
X20359Y-32977D01*
X20284Y-32958D01*
X20228Y-32958D01*
X20153Y-32977D01*
X20116Y-32995D01*
X20078Y-33033D01*
X20059Y-33089D01*
X20059Y-33127D01*
X20078Y-33183D01*
X20097Y-33202D01*
X20059Y-33333D02*
X20059Y-33577D01*
X20209Y-33445D01*
X20209Y-33502D01*
X20228Y-33539D01*
X20247Y-33558D01*
X20284Y-33577D01*
X20378Y-33577D01*
X20416Y-33558D01*
X20434Y-33539D01*
X20453Y-33502D01*
X20453Y-33389D01*
X20434Y-33352D01*
X20416Y-33333D01*
X18160Y-30034D02*
X18179Y-30015D01*
X18198Y-29959D01*
X18198Y-29921D01*
X18179Y-29865D01*
X18142Y-29828D01*
X18104Y-29809D01*
X18029Y-29790D01*
X17973Y-29790D01*
X17898Y-29809D01*
X17860Y-29828D01*
X17823Y-29865D01*
X17804Y-29921D01*
X17804Y-29959D01*
X17823Y-30015D01*
X17842Y-30034D01*
X17842Y-30184D02*
X17823Y-30203D01*
X17804Y-30240D01*
X17804Y-30334D01*
X17823Y-30371D01*
X17842Y-30390D01*
X17879Y-30409D01*
X17917Y-30409D01*
X17973Y-30390D01*
X18198Y-30165D01*
X18198Y-30409D01*
X18415Y-25934D02*
X18434Y-25915D01*
X18453Y-25859D01*
X18453Y-25821D01*
X18434Y-25765D01*
X18396Y-25728D01*
X18359Y-25709D01*
X18284Y-25690D01*
X18228Y-25690D01*
X18153Y-25709D01*
X18115Y-25728D01*
X18078Y-25765D01*
X18059Y-25821D01*
X18059Y-25859D01*
X18078Y-25915D01*
X18096Y-25934D01*
X18453Y-26309D02*
X18453Y-26084D01*
X18453Y-26196D02*
X18059Y-26196D01*
X18115Y-26159D01*
X18153Y-26121D01*
X18171Y-26084D01*
%LPC*%
G54D13*
X45625Y-10875D03*
X46374Y-10875D03*
X44374Y-10919D03*
X43625Y-10919D03*
X24374Y-10750D03*
X23625Y-10750D03*
X26124Y-10750D03*
X25375Y-10750D03*
X27874Y-10750D03*
X27125Y-10750D03*
G54D14*
X49125Y-18084D03*
X49500Y-18084D03*
X49875Y-18084D03*
X49875Y-18916D03*
X49500Y-18916D03*
X49125Y-18916D03*
X28282Y-12095D03*
X28657Y-12095D03*
X29032Y-12095D03*
X29032Y-12927D03*
X28657Y-12927D03*
X28282Y-12927D03*
G54D15*
X21900Y-16000D03*
G54D16*
X22900Y-16000D03*
X23900Y-16000D03*
X24900Y-16000D03*
X25900Y-16000D03*
X26900Y-16000D03*
X27900Y-16000D03*
X28900Y-16000D03*
X29900Y-16000D03*
X30900Y-16000D03*
G54D15*
X25500Y-35000D03*
G54D16*
X26500Y-35000D03*
X27500Y-35000D03*
X28500Y-35000D03*
X29500Y-35000D03*
X30500Y-35000D03*
X31500Y-35000D03*
X32500Y-35000D03*
G54D15*
X34500Y-35000D03*
G54D16*
X35500Y-35000D03*
X36500Y-35000D03*
X37500Y-35000D03*
X38500Y-35000D03*
X39500Y-35000D03*
X40500Y-35000D03*
X41500Y-35000D03*
G54D15*
X32500Y-16000D03*
G54D16*
X33500Y-16000D03*
X34500Y-16000D03*
X35500Y-16000D03*
X36500Y-16000D03*
X37500Y-16000D03*
X38500Y-16000D03*
X39500Y-16000D03*
G54D15*
X43500Y-35000D03*
G54D16*
X44500Y-35000D03*
X45500Y-35000D03*
X46500Y-35000D03*
X47500Y-35000D03*
X48500Y-35000D03*
X49500Y-35000D03*
X50500Y-35000D03*
G54D15*
X41500Y-16000D03*
G54D16*
X42500Y-16000D03*
X43500Y-16000D03*
X44500Y-16000D03*
X45500Y-16000D03*
X46500Y-16000D03*
X47500Y-16000D03*
X48500Y-16000D03*
G54D17*
X51500Y-16000D03*
G54D18*
X51500Y-17000D03*
X51500Y-18000D03*
X51500Y-19000D03*
X51500Y-20000D03*
X51500Y-21000D03*
X51500Y-22000D03*
X51500Y-23000D03*
X51500Y-24000D03*
X51500Y-25000D03*
X51500Y-26000D03*
X51500Y-27000D03*
X51500Y-28000D03*
X51500Y-29000D03*
X51500Y-30000D03*
X51500Y-31000D03*
X51500Y-32000D03*
X51500Y-33000D03*
X52500Y-16000D03*
X52500Y-17000D03*
X52500Y-18000D03*
X52500Y-19000D03*
X52500Y-20000D03*
X52500Y-21000D03*
X52500Y-22000D03*
X52500Y-23000D03*
X52500Y-24000D03*
X52500Y-25000D03*
X52500Y-26000D03*
X52500Y-27000D03*
X52500Y-28000D03*
X52500Y-29000D03*
X52500Y-30000D03*
X52500Y-31000D03*
X52500Y-32000D03*
X52500Y-33000D03*
G54D15*
X43250Y-33250D03*
G54D16*
X44250Y-33250D03*
X45250Y-33250D03*
X46250Y-33250D03*
X47250Y-33250D03*
X48250Y-33250D03*
X49250Y-33250D03*
X50250Y-33250D03*
G54D15*
X43250Y-28250D03*
G54D16*
X44250Y-28250D03*
X45250Y-28250D03*
X46250Y-28250D03*
X47250Y-28250D03*
X48250Y-28250D03*
X49250Y-28250D03*
X50250Y-28250D03*
G54D15*
X31000Y-26250D03*
G54D16*
X32000Y-26250D03*
X33000Y-26250D03*
X34000Y-26250D03*
X35000Y-26250D03*
X36000Y-26250D03*
X37000Y-26250D03*
X38000Y-26250D03*
G54D15*
X31000Y-21250D03*
G54D16*
X32000Y-21250D03*
X33000Y-21250D03*
X34000Y-21250D03*
X35000Y-21250D03*
X36000Y-21250D03*
X37000Y-21250D03*
X38000Y-21250D03*
G54D15*
X41000Y-26250D03*
G54D16*
X42000Y-26250D03*
X43000Y-26250D03*
X44000Y-26250D03*
X45000Y-26250D03*
X46000Y-26250D03*
X47000Y-26250D03*
X48000Y-26250D03*
G54D15*
X41000Y-21250D03*
G54D16*
X42000Y-21250D03*
X43000Y-21250D03*
X44000Y-21250D03*
X45000Y-21250D03*
X46000Y-21250D03*
X47000Y-21250D03*
X48000Y-21250D03*
G54D15*
X34250Y-33250D03*
G54D16*
X35250Y-33250D03*
X36250Y-33250D03*
X37250Y-33250D03*
X38250Y-33250D03*
X39250Y-33250D03*
X40250Y-33250D03*
X41250Y-33250D03*
G54D15*
X34250Y-28250D03*
G54D16*
X35250Y-28250D03*
X36250Y-28250D03*
X37250Y-28250D03*
X38250Y-28250D03*
X39250Y-28250D03*
X40250Y-28250D03*
X41250Y-28250D03*
G54D15*
X25250Y-33250D03*
G54D16*
X26250Y-33250D03*
X27250Y-33250D03*
X28250Y-33250D03*
X29250Y-33250D03*
X30250Y-33250D03*
X31250Y-33250D03*
X32250Y-33250D03*
G54D15*
X25250Y-28250D03*
G54D16*
X26250Y-28250D03*
X27250Y-28250D03*
X28250Y-28250D03*
X29250Y-28250D03*
X30250Y-28250D03*
X31250Y-28250D03*
X32250Y-28250D03*
G54D15*
X20500Y-13250D03*
G54D16*
X19500Y-13250D03*
X18500Y-13250D03*
X17500Y-13250D03*
G54D17*
X52250Y-11000D03*
G54D18*
X52250Y-12000D03*
X52250Y-13000D03*
G54D17*
X55000Y-13500D03*
G54D18*
X55000Y-14500D03*
X55000Y-15500D03*
X55000Y-16500D03*
X55000Y-17500D03*
X56000Y-13500D03*
X56000Y-14500D03*
X56000Y-15500D03*
X56000Y-16500D03*
X56000Y-17500D03*
G54D15*
X32500Y-12750D03*
G54D16*
X33500Y-12750D03*
X34500Y-12750D03*
X35500Y-12750D03*
X36500Y-12750D03*
X37500Y-12750D03*
X38500Y-12750D03*
X39500Y-12750D03*
X40500Y-12750D03*
X41500Y-12750D03*
X42500Y-12750D03*
X43500Y-12750D03*
X44500Y-12750D03*
X45500Y-12750D03*
X46500Y-12750D03*
X47500Y-12750D03*
X48500Y-12750D03*
X32500Y-11750D03*
X33500Y-11750D03*
X34500Y-11750D03*
X35500Y-11750D03*
X36500Y-11750D03*
X37500Y-11750D03*
X38500Y-11750D03*
X39500Y-11750D03*
X40500Y-11750D03*
X41500Y-11750D03*
X42500Y-11750D03*
X43500Y-11750D03*
X44500Y-11750D03*
X45500Y-11750D03*
X46500Y-11750D03*
X47500Y-11750D03*
X48500Y-11750D03*
G54D17*
X56000Y-25750D03*
G54D18*
X56000Y-24750D03*
X56000Y-23750D03*
X56000Y-22750D03*
X56000Y-21750D03*
X55000Y-25750D03*
X55000Y-24750D03*
X55000Y-23750D03*
X55000Y-22750D03*
X55000Y-21750D03*
G54D17*
X56000Y-34000D03*
G54D18*
X56000Y-33000D03*
X56000Y-32000D03*
X56000Y-31000D03*
X56000Y-30000D03*
X55000Y-34000D03*
X55000Y-33000D03*
X55000Y-32000D03*
X55000Y-31000D03*
X55000Y-30000D03*
G54D15*
X23500Y-12750D03*
G54D16*
X24500Y-12750D03*
X25500Y-12750D03*
X26500Y-12750D03*
X27500Y-12750D03*
X23500Y-11750D03*
X24500Y-11750D03*
X25500Y-11750D03*
X26500Y-11750D03*
X27500Y-11750D03*
G54D17*
X24080Y-32300D03*
G54D18*
X24080Y-33300D03*
G54D19*
X56374Y-20610D03*
X56374Y-20354D03*
X56374Y-20098D03*
X56374Y-19842D03*
X54169Y-18306D03*
X54169Y-18562D03*
X56374Y-18306D03*
X56374Y-18562D03*
X56374Y-18818D03*
X56374Y-19074D03*
X56374Y-19330D03*
X56374Y-19586D03*
X54169Y-20610D03*
X54169Y-20354D03*
X54169Y-20098D03*
X54169Y-19842D03*
X54169Y-19586D03*
X54169Y-19330D03*
X54169Y-19074D03*
X54169Y-18818D03*
G54D20*
X22250Y-32500D03*
G54D21*
X21568Y-34000D03*
X22931Y-31000D03*
G54D20*
X19000Y-27750D03*
G54D21*
X18318Y-29250D03*
X19681Y-26250D03*
G54D20*
X21783Y-22354D03*
G54D21*
X21102Y-23854D03*
X22465Y-20854D03*
G54D22*
X16500Y-25000D03*
X16500Y-27000D03*
X16500Y-29000D03*
X16500Y-31000D03*
X16500Y-33000D03*
X16500Y-35000D03*
X13250Y-17500D03*
X11250Y-17500D03*
G54D23*
X16000Y-13250D03*
G54D24*
X15000Y-13250D03*
G54D25*
X40500Y-13566D03*
X40500Y-14433D03*
X39500Y-13566D03*
X39500Y-14433D03*
X41500Y-13566D03*
X41500Y-14433D03*
X42500Y-13566D03*
X42500Y-14433D03*
X47183Y-20000D03*
X46316Y-20000D03*
X47816Y-20000D03*
X48683Y-20000D03*
X23683Y-13500D03*
X22816Y-13500D03*
X24566Y-13500D03*
X25433Y-13500D03*
G54D26*
X49665Y-20000D03*
X50334Y-20000D03*
X38785Y-17070D03*
X39454Y-17070D03*
X41834Y-17000D03*
X41165Y-17000D03*
X40884Y-19860D03*
X40215Y-19860D03*
X36735Y-19880D03*
X37404Y-19880D03*
G54D27*
X49359Y-11914D03*
X49359Y-11245D03*
X50159Y-11914D03*
X50159Y-11245D03*
G54D26*
X31334Y-18810D03*
X30665Y-18810D03*
X31374Y-17920D03*
X30705Y-17920D03*
G54D27*
X56812Y-21715D03*
X56812Y-22384D03*
G54D26*
X37954Y-17080D03*
X37285Y-17080D03*
X36444Y-17100D03*
X35775Y-17100D03*
G54D27*
X49379Y-12665D03*
X49379Y-13334D03*
X50159Y-12665D03*
X50159Y-13334D03*
X20250Y-34165D03*
X20250Y-34834D03*
X17495Y-29765D03*
X17495Y-30434D03*
X17750Y-25665D03*
X17750Y-26334D03*
G54D15*
X35250Y-19000D03*
G54D16*
X36250Y-19000D03*
X37250Y-19000D03*
X38250Y-19000D03*
X39250Y-19000D03*
X40250Y-19000D03*
X41250Y-19000D03*
X42250Y-19000D03*
X43250Y-19000D03*
X44250Y-19000D03*
X45250Y-19000D03*
X46250Y-19000D03*
X47250Y-19000D03*
X48250Y-19000D03*
X35250Y-18000D03*
X36250Y-18000D03*
X37250Y-18000D03*
X38250Y-18000D03*
X39250Y-18000D03*
X40250Y-18000D03*
X41250Y-18000D03*
X42250Y-18000D03*
X43250Y-18000D03*
X44250Y-18000D03*
X45250Y-18000D03*
X46250Y-18000D03*
X47250Y-18000D03*
X48250Y-18000D03*
M02*
